<?xml version="1.0" encoding="utf-8" standalone="no"?>
<!DOCTYPE svg PUBLIC "-//W3C//DTD SVG 1.1//EN"
  "http://www.w3.org/Graphics/SVG/1.1/DTD/svg11.dtd">
<svg xmlns:xlink="http://www.w3.org/1999/xlink" width="569.350906pt" height="301.183008pt" viewBox="0 0 569.350906 301.183008" xmlns="http://www.w3.org/2000/svg" version="1.1">
 <metadata>
  <rdf:RDF xmlns:dc="http://purl.org/dc/elements/1.1/" xmlns:cc="http://creativecommons.org/ns#" xmlns:rdf="http://www.w3.org/1999/02/22-rdf-syntax-ns#">
   <cc:Work>
    <dc:type rdf:resource="http://purl.org/dc/dcmitype/StillImage"/>
    <dc:date>2026-10-06T20:54:22.349845</dc:date>
    <dc:format>image/svg+xml</dc:format>
    <dc:creator>
     <cc:Agent>
      <dc:title>Matplotlib v3.10.0, https://matplotlib.org/</dc:title>
     </cc:Agent>
    </dc:creator>
   </cc:Work>
  </rdf:RDF>
 </metadata>
 <defs>
  <style type="text/css">*{stroke-linejoin: round; stroke-linecap: butt}</style>
 </defs>
 <g id="figure_1">
  <g id="patch_1">
   <path d="M -0 301.183008
L 569.350906 301.183008
L 569.350906 0
L -0 0
z
" style="fill: #ffffff"/>
  </g>
  <g id="axes_1">
   <g id="patch_2">
    <path d="M 42.598906 238.467656
L 260.898066 238.467656
L 260.898066 30.207656
L 42.598906 30.207656
z
" style="fill: #ffffff"/>
   </g>
   <g id="matplotlib.axis_1">
    <g id="xtick_1">
     <g id="line2d_1">
      <defs>
       <path id="mba22c64279" d="M 0 0
L 0 3.5
" style="stroke: #48545f; stroke-width: 0.8"/>
      </defs>
      <g>
       <use xlink:href="#mba22c64279" x="42.598906" y="238.467656" style="fill: #48545f; stroke: #48545f; stroke-width: 0.8"/>
      </g>
     </g>
     <g id="text_1">
      <text style="font-size: 9px; font-family: 'Arial'; text-anchor: middle; fill: #48545f" x="42.598906" y="251.909688" transform="rotate(-0 42.598906 251.909688)">5</text>
     </g>
    </g>
    <g id="xtick_2">
     <g id="line2d_2">
      <g>
       <use xlink:href="#mba22c64279" x="83.617717" y="238.467656" style="fill: #48545f; stroke: #48545f; stroke-width: 0.8"/>
      </g>
     </g>
     <g id="text_2">
      <text style="font-size: 9px; font-family: 'Arial'; text-anchor: middle; fill: #48545f" x="83.617717" y="251.909688" transform="rotate(-0 83.617717 251.909688)">10</text>
     </g>
    </g>
    <g id="xtick_3">
     <g id="line2d_3">
      <g>
       <use xlink:href="#mba22c64279" x="124.636527" y="238.467656" style="fill: #48545f; stroke: #48545f; stroke-width: 0.8"/>
      </g>
     </g>
     <g id="text_3">
      <text style="font-size: 9px; font-family: 'Arial'; text-anchor: middle; fill: #48545f" x="124.636527" y="251.909688" transform="rotate(-0 124.636527 251.909688)">20</text>
     </g>
    </g>
    <g id="xtick_4">
     <g id="line2d_4">
      <g>
       <use xlink:href="#mba22c64279" x="178.860445" y="238.467656" style="fill: #48545f; stroke: #48545f; stroke-width: 0.8"/>
      </g>
     </g>
     <g id="text_4">
      <text style="font-size: 9px; font-family: 'Arial'; text-anchor: middle; fill: #48545f" x="178.860445" y="251.909688" transform="rotate(-0 178.860445 251.909688)">50</text>
     </g>
    </g>
    <g id="xtick_5">
     <g id="line2d_5">
      <g>
       <use xlink:href="#mba22c64279" x="219.879255" y="238.467656" style="fill: #48545f; stroke: #48545f; stroke-width: 0.8"/>
      </g>
     </g>
     <g id="text_5">
      <text style="font-size: 9px; font-family: 'Arial'; text-anchor: middle; fill: #48545f" x="219.879255" y="251.909688" transform="rotate(-0 219.879255 251.909688)">100</text>
     </g>
    </g>
    <g id="xtick_6">
     <g id="line2d_6">
      <g>
       <use xlink:href="#mba22c64279" x="260.898066" y="238.467656" style="fill: #48545f; stroke: #48545f; stroke-width: 0.8"/>
      </g>
     </g>
     <g id="text_6">
      <text style="font-size: 9px; font-family: 'Arial'; text-anchor: middle; fill: #48545f" x="260.898066" y="251.909688" transform="rotate(-0 260.898066 251.909688)">200</text>
     </g>
    </g>
    <g id="text_7">
     <text style="font-size: 9px; font-family: 'Arial'; text-anchor: middle; fill: #243443" x="151.748486" y="264.250156" transform="rotate(-0 151.748486 264.250156)">Input length (Unicode code points; log scale)</text>
    </g>
   </g>
   <g id="matplotlib.axis_2">
    <g id="ytick_1">
     <g id="line2d_7">
      <path d="M 42.598906 238.467656
L 260.898066 238.467656
" clip-path="url(#pb7015bb834)" style="fill: none; stroke: #e7eaee; stroke-width: 0.7; stroke-linecap: square"/>
     </g>
     <g id="line2d_8">
      <defs>
       <path id="m4ba62cf250" d="M 0 0
L -3.5 0
" style="stroke: #48545f; stroke-width: 0.8"/>
      </defs>
      <g>
       <use xlink:href="#m4ba62cf250" x="42.598906" y="238.467656" style="fill: #48545f; stroke: #48545f; stroke-width: 0.8"/>
      </g>
     </g>
     <g id="text_8">
      <text style="font-size: 9px; font-family: 'Arial'; text-anchor: end; fill: #48545f" x="35.598906" y="241.688672" transform="rotate(-0 35.598906 241.688672)">0</text>
     </g>
    </g>
    <g id="ytick_2">
     <g id="line2d_9">
      <path d="M 42.598906 187.919113
L 260.898066 187.919113
" clip-path="url(#pb7015bb834)" style="fill: none; stroke: #e7eaee; stroke-width: 0.7; stroke-linecap: square"/>
     </g>
     <g id="line2d_10">
      <g>
       <use xlink:href="#m4ba62cf250" x="42.598906" y="187.919113" style="fill: #48545f; stroke: #48545f; stroke-width: 0.8"/>
      </g>
     </g>
     <g id="text_9">
      <text style="font-size: 9px; font-family: 'Arial'; text-anchor: end; fill: #48545f" x="35.598906" y="191.140128" transform="rotate(-0 35.598906 191.140128)">25</text>
     </g>
    </g>
    <g id="ytick_3">
     <g id="line2d_11">
      <path d="M 42.598906 137.370569
L 260.898066 137.370569
" clip-path="url(#pb7015bb834)" style="fill: none; stroke: #e7eaee; stroke-width: 0.7; stroke-linecap: square"/>
     </g>
     <g id="line2d_12">
      <g>
       <use xlink:href="#m4ba62cf250" x="42.598906" y="137.370569" style="fill: #48545f; stroke: #48545f; stroke-width: 0.8"/>
      </g>
     </g>
     <g id="text_10">
      <text style="font-size: 9px; font-family: 'Arial'; text-anchor: end; fill: #48545f" x="35.598906" y="140.591584" transform="rotate(-0 35.598906 140.591584)">50</text>
     </g>
    </g>
    <g id="ytick_4">
     <g id="line2d_13">
      <path d="M 42.598906 86.822025
L 260.898066 86.822025
" clip-path="url(#pb7015bb834)" style="fill: none; stroke: #e7eaee; stroke-width: 0.7; stroke-linecap: square"/>
     </g>
     <g id="line2d_14">
      <g>
       <use xlink:href="#m4ba62cf250" x="42.598906" y="86.822025" style="fill: #48545f; stroke: #48545f; stroke-width: 0.8"/>
      </g>
     </g>
     <g id="text_11">
      <text style="font-size: 9px; font-family: 'Arial'; text-anchor: end; fill: #48545f" x="35.598906" y="90.043041" transform="rotate(-0 35.598906 90.043041)">75</text>
     </g>
    </g>
    <g id="ytick_5">
     <g id="line2d_15">
      <path d="M 42.598906 36.273481
L 260.898066 36.273481
" clip-path="url(#pb7015bb834)" style="fill: none; stroke: #e7eaee; stroke-width: 0.7; stroke-linecap: square"/>
     </g>
     <g id="line2d_16">
      <g>
       <use xlink:href="#m4ba62cf250" x="42.598906" y="36.273481" style="fill: #48545f; stroke: #48545f; stroke-width: 0.8"/>
      </g>
     </g>
     <g id="text_12">
      <text style="font-size: 9px; font-family: 'Arial'; text-anchor: end; fill: #48545f" x="35.598906" y="39.494497" transform="rotate(-0 35.598906 39.494497)">100</text>
     </g>
    </g>
    <g id="text_13">
     <text style="font-size: 10px; font-family: 'Arial'; text-anchor: middle; fill: #243443" x="14.479687" y="134.337656" transform="rotate(-90 14.479687 134.337656)">Cumulative share (%)</text>
    </g>
   </g>
   <g id="line2d_17">
    <path d="M 70.412609 237.119695
L 77.382731 237.119695
L 77.382731 235.771734
L 83.617717 235.771734
L 83.617717 234.423773
L 89.257948 234.423773
L 89.257948 233.075812
L 99.143813 233.075812
L 99.143813 229.031928
L 103.529348 229.031928
L 103.529348 227.683967
L 107.612183 227.683967
L 107.612183 220.944161
L 111.43142 220.944161
L 111.43142 216.900278
L 115.019041 216.900278
L 115.019041 215.552316
L 118.401541 215.552316
L 118.401541 206.116588
L 121.601111 206.116588
L 121.601111 198.028821
L 124.636527 198.028821
L 124.636527 189.941054
L 127.523814 189.941054
L 127.523814 188.593093
L 130.276758 188.593093
L 130.276758 179.157365
L 132.907308 179.157365
L 132.907308 175.113481
L 137.841635 175.113481
L 137.841635 169.721637
L 140.162624 169.721637
L 140.162624 162.981831
L 142.396007 162.981831
L 142.396007 160.285909
L 144.548158 160.285909
L 144.548158 154.894064
L 146.624779 154.894064
L 146.624779 150.850181
L 148.630993 150.850181
L 148.630993 141.414452
L 150.571417 141.414452
L 150.571417 140.066491
L 152.45023 140.066491
L 152.45023 138.71853
L 154.271224 138.71853
L 154.271224 137.370569
L 156.037852 137.370569
L 156.037852 130.630763
L 157.753266 130.630763
L 157.753266 127.934841
L 159.420351 127.934841
L 159.420351 125.238918
L 161.041758 125.238918
L 161.041758 122.542996
L 162.619922 122.542996
L 162.619922 113.107268
L 164.15709 113.107268
L 164.15709 111.759307
L 168.542624 111.759307
L 168.542624 106.367462
L 169.935103 106.367462
L 169.935103 105.019501
L 171.295569 105.019501
L 171.295569 102.323579
L 172.625459 102.323579
L 172.625459 100.975617
L 173.926119 100.975617
L 173.926119 96.931734
L 175.198805 96.931734
L 175.198805 94.235812
L 176.444696 94.235812
L 176.444696 90.191928
L 178.860445 90.191928
L 178.860445 88.843967
L 180.032318 88.843967
L 180.032318 87.496006
L 181.181434 87.496006
L 181.181434 82.104161
L 182.308661 82.104161
L 182.308661 74.016394
L 183.414817 74.016394
L 183.414817 72.668433
L 186.614388 72.668433
L 186.614388 71.320472
L 187.64359 71.320472
L 187.64359 65.928627
L 189.649803 65.928627
L 189.649803 64.580666
L 191.590228 64.580666
L 191.590228 61.884744
L 192.53709 61.884744
L 192.53709 60.536782
L 193.46904 60.536782
L 193.46904 59.188821
L 195.290034 59.188821
L 195.290034 57.84086
L 199.611489 57.84086
L 199.611489 56.492899
L 200.439162 56.492899
L 200.439162 52.449015
L 205.1759 52.449015
L 205.1759 51.101054
L 205.929765 51.101054
L 205.929765 49.753093
L 208.852712 49.753093
L 208.852712 48.405132
L 210.26177 48.405132
L 210.26177 47.057171
L 210.953914 47.057171
L 210.953914 45.70921
L 216.84384 45.70921
L 216.84384 44.361248
L 221.628475 44.361248
L 221.628475 43.013287
L 229.674008 43.013287
L 229.674008 41.665326
L 230.173401 41.665326
L 230.173401 40.317365
L 236.308845 40.317365
L 236.308845 38.969404
L 246.572844 38.969404
L 246.572844 37.621443
L 257.236426 37.621443
L 257.236426 36.273481
L 257.236426 36.273481
" clip-path="url(#pb7015bb834)" style="fill: none; stroke: #8064a2; stroke-width: 1.7; stroke-linecap: square"/>
   </g>
   <g id="patch_3">
    <path d="M 42.598906 238.467656
L 42.598906 30.207656
" style="fill: none; stroke: #a9b2ba; stroke-width: 0.7; stroke-linejoin: miter; stroke-linecap: square"/>
   </g>
   <g id="patch_4">
    <path d="M 42.598906 238.467656
L 260.898066 238.467656
" style="fill: none; stroke: #a9b2ba; stroke-width: 0.7; stroke-linejoin: miter; stroke-linecap: square"/>
   </g>
   <g id="text_14">
    <text style="font-weight: 700; font-size: 11px; font-family: 'Arial'; text-anchor: start; fill: #243443" x="42.598906" y="18.207656" transform="rotate(-0 42.598906 18.207656)">(a) Shared sentence lengths</text>
   </g>
   <g id="legend_1">
    <g id="line2d_18">
     <path d="M 139.519941 221.769794
L 149.199941 221.769794
L 149.199941 221.769794
L 158.879941 221.769794
L 158.879941 221.769794
" style="fill: none; stroke: #8064a2; stroke-width: 1.7; stroke-linecap: square"/>
    </g>
    <g id="text_15">
     <text style="font-size: 8.8px; font-family: 'Arial'; fill: #243443" transform="translate(165.919941 219.259181)">Shared review sample</text>
     <text style="font-size: 8.8px; font-family: 'Arial'; fill: #243443" transform="translate(165.919941 228.695531)">(150 sentences)</text>
    </g>
   </g>
  </g>
  <g id="axes_2">
   <g id="patch_5">
    <path d="M 343.851747 75.763819
L 562.150906 75.763819
L 562.150906 30.207656
L 343.851747 30.207656
z
" style="fill: #ffffff"/>
   </g>
   <g id="FillBetweenPolyCollection_1">
    <defs>
     <path id="m65e5d6c4bd" d="M 412.515231 -226.247483
L 394.260531 -226.247483
L 393.192703 -226.358291
L 392.071948 -226.4691
L 390.904411 -226.579909
L 389.696978 -226.690717
L 388.457199 -226.801526
L 387.193223 -226.912334
L 385.913756 -227.023143
L 384.628033 -227.133951
L 383.345807 -227.24476
L 382.077331 -227.355568
L 380.833334 -227.466377
L 379.624957 -227.577185
L 378.463645 -227.687994
L 377.360989 -227.798803
L 376.328497 -227.909611
L 375.377308 -228.02042
L 374.517855 -228.131228
L 373.759498 -228.242037
L 373.110147 -228.352845
L 372.575913 -228.463654
L 372.160809 -228.574462
L 371.866541 -228.685271
L 371.692399 -228.796079
L 371.635276 -228.906888
L 371.689812 -229.017697
L 371.84866 -229.128505
L 372.102847 -229.239314
L 372.442218 -229.350122
L 372.855912 -229.460931
L 373.332842 -229.571739
L 373.862149 -229.682548
L 374.433574 -229.793356
L 375.037761 -229.904165
L 375.666438 -230.014973
L 376.312506 -230.125782
L 376.970019 -230.236591
L 377.634086 -230.347399
L 378.300713 -230.458208
L 378.966605 -230.569016
L 379.628973 -230.679825
L 380.285344 -230.790633
L 380.933421 -230.901442
L 381.570984 -231.01225
L 382.195854 -231.123059
L 382.805902 -231.233867
L 383.399118 -231.344676
L 383.973696 -231.455485
L 384.52815 -231.566293
L 385.061426 -231.677102
L 385.573 -231.78791
L 386.062944 -231.898719
L 386.531961 -232.009527
L 386.981374 -232.120336
L 387.413071 -232.231144
L 387.829412 -232.341953
L 388.233102 -232.452761
L 388.627044 -232.56357
L 389.014179 -232.674379
L 389.39732 -232.785187
L 389.779012 -232.895996
L 390.161392 -233.006804
L 390.546097 -233.117613
L 390.93419 -233.228421
L 391.326129 -233.33923
L 391.721767 -233.450038
L 392.120387 -233.560847
L 392.520767 -233.671655
L 392.921262 -233.782464
L 393.319904 -233.893273
L 393.714514 -234.004081
L 394.102812 -234.11489
L 394.482524 -234.225698
L 394.85148 -234.336507
L 395.207699 -234.447315
L 395.549454 -234.558124
L 395.875325 -234.668932
L 396.184232 -234.779741
L 396.475447 -234.890549
L 396.748595 -235.001358
L 397.003643 -235.112167
L 397.240876 -235.222975
L 397.460863 -235.333784
L 397.664428 -235.444592
L 397.852603 -235.555401
L 398.026598 -235.666209
L 398.187755 -235.777018
L 398.337513 -235.887826
L 398.477375 -235.998635
L 398.608872 -236.109443
L 398.733532 -236.220252
L 398.852851 -236.331061
L 398.968264 -236.441869
L 399.081123 -236.552678
L 399.192671 -236.663486
L 399.304018 -236.774295
L 399.41613 -236.885103
L 399.52981 -236.995912
L 399.645685 -237.10672
L 399.764205 -237.217529
L 399.885638 -237.328337
L 400.010072 -237.439146
L 400.137422 -237.549955
L 400.267442 -237.660763
L 400.399741 -237.771572
L 400.533795 -237.88238
L 400.668972 -237.993189
L 400.804551 -238.103997
L 400.939745 -238.214806
L 401.073726 -238.325614
L 401.205647 -238.436423
L 401.33467 -238.547231
L 401.459983 -238.65804
L 401.580828 -238.768849
L 401.696521 -238.879657
L 401.806466 -238.990466
L 401.910176 -239.101274
L 402.00728 -239.212083
L 402.097529 -239.322891
L 402.180799 -239.4337
L 402.257087 -239.544508
L 402.326498 -239.655317
L 402.389235 -239.766125
L 402.445573 -239.876934
L 402.495849 -239.987743
L 402.540431 -240.098551
L 402.5797 -240.20936
L 402.614033 -240.320168
L 402.643788 -240.430977
L 402.669294 -240.541785
L 402.690846 -240.652594
L 402.708711 -240.763402
L 402.723133 -240.874211
L 402.734344 -240.985019
L 402.742582 -241.095828
L 402.748105 -241.206637
L 402.751202 -241.317445
L 402.752211 -241.428254
L 402.751523 -241.539062
L 402.749584 -241.649871
L 402.746891 -241.760679
L 402.74398 -241.871488
L 402.741413 -241.982296
L 402.739751 -242.093105
L 402.739534 -242.203913
L 402.74125 -242.314722
L 402.745316 -242.425531
L 402.752048 -242.536339
L 402.761646 -242.647148
L 402.774182 -242.757956
L 402.789592 -242.868765
L 402.807678 -242.979573
L 402.828119 -243.090382
L 402.850487 -243.20119
L 402.874268 -243.311999
L 402.898891 -243.422807
L 402.923756 -243.533616
L 402.948265 -243.644425
L 402.97185 -243.755233
L 402.994002 -243.866042
L 403.01429 -243.97685
L 403.032381 -244.087659
L 403.048044 -244.198467
L 403.06116 -244.309276
L 403.071714 -244.420084
L 403.07979 -244.530893
L 403.085555 -244.641701
L 403.089242 -244.75251
L 403.091137 -244.863319
L 403.091552 -244.974127
L 403.090815 -245.084936
L 403.089248 -245.195744
L 403.08716 -245.306553
L 403.084834 -245.417361
L 403.082523 -245.52817
L 403.080445 -245.638978
L 403.078791 -245.749787
L 403.07772 -245.860595
L 403.077366 -245.971404
L 403.077846 -246.082213
L 403.079259 -246.193021
L 403.081691 -246.30383
L 403.085215 -246.414638
L 403.089895 -246.525447
L 403.095778 -246.636255
L 403.102895 -246.747064
L 403.111254 -246.857872
L 403.120839 -246.968681
L 403.131605 -247.079489
L 403.143475 -247.190298
L 403.15634 -247.301107
L 403.17006 -247.411915
L 403.184468 -247.522724
L 403.199375 -247.633532
L 403.214577 -247.744341
L 403.229861 -247.855149
L 403.245015 -247.965958
L 403.259837 -248.076766
L 403.274139 -248.187575
L 403.287758 -248.298383
L 403.300558 -248.409192
L 403.312433 -248.520001
L 403.323311 -248.630809
L 403.333149 -248.741618
L 403.341936 -248.852426
L 403.349688 -248.963235
L 403.356444 -249.074043
L 403.362261 -249.184852
L 403.367208 -249.29566
L 403.371367 -249.406469
L 403.374821 -249.517277
L 403.377656 -249.628086
L 403.379956 -249.738895
L 403.381801 -249.849703
L 403.383264 -249.960512
L 403.38441 -250.07132
L 403.385299 -250.182129
L 403.385979 -250.292937
L 403.386494 -250.403746
L 403.38688 -250.514554
L 403.387166 -250.625363
L 403.387376 -250.736171
L 403.387528 -250.84698
L 403.387636 -250.957789
L 403.387713 -251.068597
L 403.387767 -251.179406
L 403.387805 -251.290214
L 403.38783 -251.401023
L 403.387848 -251.511831
L 403.387859 -251.62264
L 403.387867 -251.733448
L 403.387872 -251.844257
L 403.387875 -251.955065
L 403.387878 -252.065874
L 403.387879 -252.176683
L 403.38788 -252.287491
L 403.38788 -252.3983
L 403.387881 -252.509108
L 403.387881 -252.619917
L 403.387881 -252.730725
L 403.387881 -252.841534
L 403.387881 -252.952342
L 403.387881 -253.063151
L 403.387881 -253.173959
L 403.387881 -253.284768
L 403.387881 -253.395577
L 403.387881 -253.506385
L 403.387881 -253.617194
L 403.387881 -253.728002
L 403.387881 -253.838811
L 403.38788 -253.949619
L 403.38788 -254.060428
L 403.387879 -254.171236
L 403.387877 -254.282045
L 403.387875 -254.392853
L 403.387872 -254.503662
L 403.387866 -254.614471
L 403.387858 -254.725279
L 403.387846 -254.836088
L 403.387828 -254.946896
L 403.387801 -255.057705
L 403.387762 -255.168513
L 403.387705 -255.279322
L 403.387625 -255.39013
L 403.387512 -255.500939
L 403.387354 -255.611747
L 403.387137 -255.722556
L 403.386841 -255.833365
L 403.386442 -255.944173
L 403.38591 -256.054982
L 403.38521 -256.16579
L 403.384297 -256.276599
L 403.383123 -256.387407
L 403.381629 -256.498216
L 403.37975 -256.609024
L 403.377414 -256.719833
L 403.374546 -256.830641
L 403.371066 -256.94145
L 403.366895 -257.052259
L 403.361959 -257.163067
L 403.356189 -257.273876
L 403.349532 -257.384684
L 403.341952 -257.495493
L 403.333439 -257.606301
L 403.324009 -257.71711
L 403.313714 -257.827918
L 403.302643 -257.938727
L 403.290924 -258.049535
L 403.278724 -258.160344
L 403.266249 -258.271153
L 403.253738 -258.381961
L 403.241457 -258.49277
L 403.22969 -258.603578
L 403.218731 -258.714387
L 403.208866 -258.825195
L 403.200368 -258.936004
L 403.193481 -259.046812
L 403.188407 -259.157621
L 403.185299 -259.268429
L 403.184253 -259.379238
L 403.591509 -259.379238
L 403.591509 -259.379238
L 403.590463 -259.268429
L 403.587355 -259.157621
L 403.582281 -259.046812
L 403.575394 -258.936004
L 403.566896 -258.825195
L 403.557032 -258.714387
L 403.546072 -258.603578
L 403.534305 -258.49277
L 403.522024 -258.381961
L 403.509513 -258.271153
L 403.497038 -258.160344
L 403.484838 -258.049535
L 403.473119 -257.938727
L 403.462048 -257.827918
L 403.451753 -257.71711
L 403.442323 -257.606301
L 403.43381 -257.495493
L 403.42623 -257.384684
L 403.419573 -257.273876
L 403.413803 -257.163067
L 403.408867 -257.052259
L 403.404696 -256.94145
L 403.401216 -256.830641
L 403.398348 -256.719833
L 403.396012 -256.609024
L 403.394133 -256.498216
L 403.392639 -256.387407
L 403.391465 -256.276599
L 403.390553 -256.16579
L 403.389852 -256.054982
L 403.389321 -255.944173
L 403.388921 -255.833365
L 403.388625 -255.722556
L 403.388408 -255.611747
L 403.38825 -255.500939
L 403.388137 -255.39013
L 403.388057 -255.279322
L 403.388001 -255.168513
L 403.387961 -255.057705
L 403.387935 -254.946896
L 403.387916 -254.836088
L 403.387904 -254.725279
L 403.387896 -254.614471
L 403.387891 -254.503662
L 403.387887 -254.392853
L 403.387885 -254.282045
L 403.387883 -254.171236
L 403.387882 -254.060428
L 403.387882 -253.949619
L 403.387882 -253.838811
L 403.387881 -253.728002
L 403.387881 -253.617194
L 403.387881 -253.506385
L 403.387881 -253.395577
L 403.387881 -253.284768
L 403.387881 -253.173959
L 403.387881 -253.063151
L 403.387881 -252.952342
L 403.387881 -252.841534
L 403.387881 -252.730725
L 403.387881 -252.619917
L 403.387882 -252.509108
L 403.387882 -252.3983
L 403.387882 -252.287491
L 403.387883 -252.176683
L 403.387885 -252.065874
L 403.387887 -251.955065
L 403.38789 -251.844257
L 403.387895 -251.733448
L 403.387903 -251.62264
L 403.387914 -251.511831
L 403.387932 -251.401023
L 403.387958 -251.290214
L 403.387995 -251.179406
L 403.388049 -251.068597
L 403.388126 -250.957789
L 403.388235 -250.84698
L 403.388386 -250.736171
L 403.388596 -250.625363
L 403.388882 -250.514554
L 403.389268 -250.403746
L 403.389783 -250.292937
L 403.390464 -250.182129
L 403.391352 -250.07132
L 403.392498 -249.960512
L 403.393961 -249.849703
L 403.395806 -249.738895
L 403.398106 -249.628086
L 403.400941 -249.517277
L 403.404396 -249.406469
L 403.408554 -249.29566
L 403.413502 -249.184852
L 403.419318 -249.074043
L 403.426074 -248.963235
L 403.433826 -248.852426
L 403.442614 -248.741618
L 403.452452 -248.630809
L 403.463329 -248.520001
L 403.475204 -248.409192
L 403.488004 -248.298383
L 403.501623 -248.187575
L 403.515925 -248.076766
L 403.530747 -247.965958
L 403.545901 -247.855149
L 403.561185 -247.744341
L 403.576387 -247.633532
L 403.591294 -247.522724
L 403.605702 -247.411915
L 403.619422 -247.301107
L 403.632287 -247.190298
L 403.644157 -247.079489
L 403.654923 -246.968681
L 403.664508 -246.857872
L 403.672868 -246.747064
L 403.679984 -246.636255
L 403.685867 -246.525447
L 403.690547 -246.414638
L 403.694071 -246.30383
L 403.696503 -246.193021
L 403.697916 -246.082213
L 403.698396 -245.971404
L 403.698042 -245.860595
L 403.696971 -245.749787
L 403.695317 -245.638978
L 403.693239 -245.52817
L 403.690928 -245.417361
L 403.688602 -245.306553
L 403.686514 -245.195744
L 403.684947 -245.084936
L 403.68421 -244.974127
L 403.684625 -244.863319
L 403.68652 -244.75251
L 403.690207 -244.641701
L 403.695972 -244.530893
L 403.704048 -244.420084
L 403.714602 -244.309276
L 403.727718 -244.198467
L 403.743382 -244.087659
L 403.761472 -243.97685
L 403.78176 -243.866042
L 403.803912 -243.755233
L 403.827497 -243.644425
L 403.852006 -243.533616
L 403.876871 -243.422807
L 403.901494 -243.311999
L 403.925275 -243.20119
L 403.947643 -243.090382
L 403.968085 -242.979573
L 403.98617 -242.868765
L 404.00158 -242.757956
L 404.014116 -242.647148
L 404.023715 -242.536339
L 404.030446 -242.425531
L 404.034512 -242.314722
L 404.036228 -242.203913
L 404.036011 -242.093105
L 404.034349 -241.982296
L 404.031782 -241.871488
L 404.028871 -241.760679
L 404.026178 -241.649871
L 404.024239 -241.539062
L 404.023551 -241.428254
L 404.02456 -241.317445
L 404.027657 -241.206637
L 404.03318 -241.095828
L 404.041418 -240.985019
L 404.052629 -240.874211
L 404.067051 -240.763402
L 404.084916 -240.652594
L 404.106468 -240.541785
L 404.131974 -240.430977
L 404.161729 -240.320168
L 404.196062 -240.20936
L 404.235331 -240.098551
L 404.279913 -239.987743
L 404.330189 -239.876934
L 404.386527 -239.766125
L 404.449264 -239.655317
L 404.518675 -239.544508
L 404.594963 -239.4337
L 404.678234 -239.322891
L 404.768482 -239.212083
L 404.865586 -239.101274
L 404.969296 -238.990466
L 405.079241 -238.879657
L 405.194934 -238.768849
L 405.315779 -238.65804
L 405.441092 -238.547231
L 405.570115 -238.436423
L 405.702036 -238.325614
L 405.836017 -238.214806
L 405.971211 -238.103997
L 406.10679 -237.993189
L 406.241967 -237.88238
L 406.376021 -237.771572
L 406.50832 -237.660763
L 406.63834 -237.549955
L 406.76569 -237.439146
L 406.890124 -237.328337
L 407.011557 -237.217529
L 407.130077 -237.10672
L 407.245952 -236.995912
L 407.359632 -236.885103
L 407.471744 -236.774295
L 407.583092 -236.663486
L 407.694639 -236.552678
L 407.807498 -236.441869
L 407.922911 -236.331061
L 408.04223 -236.220252
L 408.16689 -236.109443
L 408.298387 -235.998635
L 408.438249 -235.887826
L 408.588007 -235.777018
L 408.749164 -235.666209
L 408.923159 -235.555401
L 409.111334 -235.444592
L 409.314899 -235.333784
L 409.534886 -235.222975
L 409.772119 -235.112167
L 410.027167 -235.001358
L 410.300315 -234.890549
L 410.59153 -234.779741
L 410.900437 -234.668932
L 411.226309 -234.558124
L 411.568063 -234.447315
L 411.924282 -234.336507
L 412.293238 -234.225698
L 412.67295 -234.11489
L 413.061248 -234.004081
L 413.455858 -233.893273
L 413.8545 -233.782464
L 414.254995 -233.671655
L 414.655375 -233.560847
L 415.053996 -233.450038
L 415.449633 -233.33923
L 415.841572 -233.228421
L 416.229665 -233.117613
L 416.61437 -233.006804
L 416.99675 -232.895996
L 417.378442 -232.785187
L 417.761584 -232.674379
L 418.148718 -232.56357
L 418.54266 -232.452761
L 418.94635 -232.341953
L 419.362691 -232.231144
L 419.794388 -232.120336
L 420.243801 -232.009527
L 420.712818 -231.898719
L 421.202762 -231.78791
L 421.714336 -231.677102
L 422.247612 -231.566293
L 422.802066 -231.455485
L 423.376644 -231.344676
L 423.96986 -231.233867
L 424.579909 -231.123059
L 425.204778 -231.01225
L 425.842341 -230.901442
L 426.490418 -230.790633
L 427.146789 -230.679825
L 427.809157 -230.569016
L 428.475049 -230.458208
L 429.141676 -230.347399
L 429.805743 -230.236591
L 430.463256 -230.125782
L 431.109324 -230.014973
L 431.738001 -229.904165
L 432.342188 -229.793356
L 432.913613 -229.682548
L 433.44292 -229.571739
L 433.91985 -229.460931
L 434.333544 -229.350122
L 434.672915 -229.239314
L 434.927102 -229.128505
L 435.08595 -229.017697
L 435.140486 -228.906888
L 435.083363 -228.796079
L 434.909221 -228.685271
L 434.614953 -228.574462
L 434.199849 -228.463654
L 433.665615 -228.352845
L 433.016264 -228.242037
L 432.257907 -228.131228
L 431.398454 -228.02042
L 430.447265 -227.909611
L 429.414773 -227.798803
L 428.312118 -227.687994
L 427.150805 -227.577185
L 425.942428 -227.466377
L 424.698431 -227.355568
L 423.429955 -227.24476
L 422.147729 -227.133951
L 420.862006 -227.023143
L 419.582539 -226.912334
L 418.318563 -226.801526
L 417.078785 -226.690717
L 415.871351 -226.579909
L 414.703814 -226.4691
L 413.583059 -226.358291
L 412.515231 -226.247483
z
" style="stroke: #8064a2; stroke-opacity: 0.25"/>
    </defs>
    <g clip-path="url(#pde1850483e)">
     <use xlink:href="#m65e5d6c4bd" x="0" y="301.183008" style="fill: #8064a2; fill-opacity: 0.25; stroke: #8064a2; stroke-opacity: 0.25"/>
    </g>
   </g>
   <g id="FillBetweenPolyCollection_2">
    <defs>
     <path id="ma6b51dd732" d="M 512.82205 -226.247483
L 492.407494 -226.247483
L 491.328487 -226.361062
L 490.20118 -226.47464
L 489.031558 -226.588219
L 487.826524 -226.701798
L 486.593856 -226.815377
L 485.342147 -226.928955
L 484.08074 -227.042534
L 482.819636 -227.156113
L 481.569385 -227.269692
L 480.340954 -227.383271
L 479.145567 -227.496849
L 477.994526 -227.610428
L 476.898994 -227.724007
L 475.86977 -227.837586
L 474.917039 -227.951164
L 474.050116 -228.064743
L 473.277202 -228.178322
L 472.605141 -228.291901
L 472.039222 -228.405479
L 471.583012 -228.519058
L 471.238251 -228.632637
L 471.004805 -228.746216
L 470.88069 -228.859794
L 470.862167 -228.973373
L 470.943897 -229.086952
L 471.119166 -229.200531
L 471.380145 -229.314109
L 471.718192 -229.427688
L 472.124162 -229.541267
L 472.588721 -229.654846
L 473.102635 -229.768424
L 473.657029 -229.882003
L 474.243601 -229.995582
L 474.854787 -230.109161
L 475.483856 -230.22274
L 476.124972 -230.336318
L 476.773181 -230.449897
L 477.424374 -230.563476
L 478.075208 -230.677055
L 478.723002 -230.790633
L 479.365628 -230.904212
L 480.001396 -231.017791
L 480.628948 -231.13137
L 481.247165 -231.244948
L 481.855089 -231.358527
L 482.451875 -231.472106
L 483.036745 -231.585685
L 483.608979 -231.699263
L 484.167903 -231.812842
L 484.712903 -231.926421
L 485.243435 -232.04
L 485.759041 -232.153578
L 486.259371 -232.267157
L 486.744192 -232.380736
L 487.213403 -232.494315
L 487.667036 -232.607893
L 488.105262 -232.721472
L 488.528384 -232.835051
L 488.93683 -232.94863
L 489.331141 -233.062208
L 489.711958 -233.175787
L 490.080006 -233.289366
L 490.436077 -233.402945
L 490.78101 -233.516524
L 491.115673 -233.630102
L 491.440945 -233.743681
L 491.757688 -233.85726
L 492.066733 -233.970839
L 492.368854 -234.084417
L 492.66475 -234.197996
L 492.955026 -234.311575
L 493.240173 -234.425154
L 493.520563 -234.538732
L 493.796436 -234.652311
L 494.067899 -234.76589
L 494.33493 -234.879469
L 494.597391 -234.993047
L 494.855041 -235.106626
L 495.10756 -235.220205
L 495.354573 -235.333784
L 495.595683 -235.447362
L 495.830496 -235.560941
L 496.058658 -235.67452
L 496.279874 -235.788099
L 496.493936 -235.901677
L 496.700741 -236.015256
L 496.900297 -236.128835
L 497.092729 -236.242414
L 497.278274 -236.355992
L 497.45727 -236.469571
L 497.630134 -236.58315
L 497.797339 -236.696729
L 497.959389 -236.810308
L 498.116788 -236.923886
L 498.270006 -237.037465
L 498.419459 -237.151044
L 498.565477 -237.264623
L 498.708289 -237.378201
L 498.848011 -237.49178
L 498.984636 -237.605359
L 499.118038 -237.718938
L 499.247982 -237.832516
L 499.374136 -237.946095
L 499.496098 -238.059674
L 499.613416 -238.173253
L 499.725621 -238.286831
L 499.832257 -238.40041
L 499.932909 -238.513989
L 500.027236 -238.627568
L 500.114991 -238.741146
L 500.196044 -238.854725
L 500.270393 -238.968304
L 500.338175 -239.081883
L 500.399663 -239.195461
L 500.45526 -239.30904
L 500.505487 -239.422619
L 500.550963 -239.536198
L 500.59238 -239.649776
L 500.630476 -239.763355
L 500.666012 -239.876934
L 500.699733 -239.990513
L 500.73235 -240.104092
L 500.764508 -240.21767
L 500.796771 -240.331249
L 500.8296 -240.444828
L 500.86335 -240.558407
L 500.898259 -240.671985
L 500.934455 -240.785564
L 500.971961 -240.899143
L 501.010704 -241.012722
L 501.05054 -241.1263
L 501.091261 -241.239879
L 501.132622 -241.353458
L 501.174361 -241.467037
L 501.216215 -241.580615
L 501.257935 -241.694194
L 501.299303 -241.807773
L 501.340141 -241.921352
L 501.380314 -242.03493
L 501.419732 -242.148509
L 501.458348 -242.262088
L 501.496149 -242.375667
L 501.533153 -242.489245
L 501.569391 -242.602824
L 501.6049 -242.716403
L 501.639711 -242.829982
L 501.673836 -242.943561
L 501.707265 -243.057139
L 501.739952 -243.170718
L 501.771818 -243.284297
L 501.802751 -243.397876
L 501.832606 -243.511454
L 501.861211 -243.625033
L 501.888381 -243.738612
L 501.913923 -243.852191
L 501.937648 -243.965769
L 501.959386 -244.079348
L 501.978997 -244.192927
L 501.99638 -244.306506
L 502.01148 -244.420084
L 502.024303 -244.533663
L 502.034908 -244.647242
L 502.043418 -244.760821
L 502.050014 -244.874399
L 502.054931 -244.987978
L 502.058453 -245.101557
L 502.060901 -245.215136
L 502.062625 -245.328714
L 502.063991 -245.442293
L 502.06537 -245.555872
L 502.067125 -245.669451
L 502.069601 -245.783029
L 502.073108 -245.896608
L 502.077921 -246.010187
L 502.084262 -246.123766
L 502.092301 -246.237345
L 502.102149 -246.350923
L 502.113851 -246.464502
L 502.127394 -246.578081
L 502.142701 -246.69166
L 502.159637 -246.805238
L 502.178016 -246.918817
L 502.197602 -247.032396
L 502.218122 -247.145975
L 502.23927 -247.259553
L 502.260721 -247.373132
L 502.282137 -247.486711
L 502.30318 -247.60029
L 502.32352 -247.713868
L 502.342846 -247.827447
L 502.360873 -247.941026
L 502.377355 -248.054605
L 502.392087 -248.168183
L 502.404914 -248.281762
L 502.415735 -248.395341
L 502.424503 -248.50892
L 502.431229 -248.622498
L 502.435983 -248.736077
L 502.438885 -248.849656
L 502.440108 -248.963235
L 502.439865 -249.076813
L 502.438408 -249.190392
L 502.436017 -249.303971
L 502.432989 -249.41755
L 502.429628 -249.531129
L 502.426238 -249.644707
L 502.42311 -249.758286
L 502.420514 -249.871865
L 502.418687 -249.985444
L 502.417832 -250.099022
L 502.418106 -250.212601
L 502.41962 -250.32618
L 502.422436 -250.439759
L 502.426567 -250.553337
L 502.43198 -250.666916
L 502.4386 -250.780495
L 502.446312 -250.894074
L 502.454973 -251.007652
L 502.464415 -251.121231
L 502.474456 -251.23481
L 502.484906 -251.348389
L 502.495573 -251.461967
L 502.506276 -251.575546
L 502.516844 -251.689125
L 502.527123 -251.802704
L 502.536982 -251.916282
L 502.546313 -252.029861
L 502.555033 -252.14344
L 502.563082 -252.257019
L 502.570423 -252.370597
L 502.577044 -252.484176
L 502.582947 -252.597755
L 502.588154 -252.711334
L 502.592697 -252.824913
L 502.596619 -252.938491
L 502.599971 -253.05207
L 502.602806 -253.165649
L 502.60518 -253.279228
L 502.607148 -253.392806
L 502.608763 -253.506385
L 502.610076 -253.619964
L 502.611134 -253.733543
L 502.611977 -253.847121
L 502.612642 -253.9607
L 502.613163 -254.074279
L 502.613566 -254.187858
L 502.613876 -254.301436
L 502.61411 -254.415015
L 502.614286 -254.528594
L 502.614417 -254.642173
L 502.614511 -254.755751
L 502.614578 -254.86933
L 502.614623 -254.982909
L 502.614649 -255.096488
L 502.61466 -255.210066
L 502.614656 -255.323645
L 502.614638 -255.437224
L 502.614602 -255.550803
L 502.614547 -255.664382
L 502.614467 -255.77796
L 502.614355 -255.891539
L 502.614203 -256.005118
L 502.613998 -256.118697
L 502.613728 -256.232275
L 502.613373 -256.345854
L 502.612912 -256.459433
L 502.612321 -256.573012
L 502.611569 -256.68659
L 502.610621 -256.800169
L 502.609439 -256.913748
L 502.607977 -257.027327
L 502.606187 -257.140905
L 502.604019 -257.254484
L 502.601416 -257.368063
L 502.598323 -257.481642
L 502.594687 -257.59522
L 502.590453 -257.708799
L 502.585577 -257.822378
L 502.580019 -257.935957
L 502.573754 -258.049535
L 502.566768 -258.163114
L 502.559069 -258.276693
L 502.550682 -258.390272
L 502.541656 -258.50385
L 502.532065 -258.617429
L 502.522008 -258.731008
L 502.511609 -258.844587
L 502.501015 -258.958166
L 502.490394 -259.071744
L 502.479934 -259.185323
L 502.469831 -259.298902
L 502.460289 -259.412481
L 502.451513 -259.526059
L 502.443699 -259.639638
L 502.437029 -259.753217
L 502.431661 -259.866796
L 502.427728 -259.980374
L 502.425328 -260.093953
L 502.424521 -260.207532
L 502.805022 -260.207532
L 502.805022 -260.207532
L 502.804215 -260.093953
L 502.801815 -259.980374
L 502.797882 -259.866796
L 502.792515 -259.753217
L 502.785844 -259.639638
L 502.77803 -259.526059
L 502.769254 -259.412481
L 502.759713 -259.298902
L 502.74961 -259.185323
L 502.739149 -259.071744
L 502.728529 -258.958166
L 502.717935 -258.844587
L 502.707536 -258.731008
L 502.697479 -258.617429
L 502.687888 -258.50385
L 502.678862 -258.390272
L 502.670475 -258.276693
L 502.662775 -258.163114
L 502.65579 -258.049535
L 502.649525 -257.935957
L 502.643967 -257.822378
L 502.63909 -257.708799
L 502.634857 -257.59522
L 502.63122 -257.481642
L 502.628128 -257.368063
L 502.625525 -257.254484
L 502.623356 -257.140905
L 502.621567 -257.027327
L 502.620105 -256.913748
L 502.618922 -256.800169
L 502.617974 -256.68659
L 502.617222 -256.573012
L 502.616631 -256.459433
L 502.616171 -256.345854
L 502.615816 -256.232275
L 502.615545 -256.118697
L 502.615341 -256.005118
L 502.615189 -255.891539
L 502.615077 -255.77796
L 502.614997 -255.664382
L 502.614941 -255.550803
L 502.614906 -255.437224
L 502.614887 -255.323645
L 502.614883 -255.210066
L 502.614894 -255.096488
L 502.614921 -254.982909
L 502.614965 -254.86933
L 502.615032 -254.755751
L 502.615127 -254.642173
L 502.615257 -254.528594
L 502.615433 -254.415015
L 502.615668 -254.301436
L 502.615977 -254.187858
L 502.616381 -254.074279
L 502.616901 -253.9607
L 502.617567 -253.847121
L 502.61841 -253.733543
L 502.619467 -253.619964
L 502.62078 -253.506385
L 502.622396 -253.392806
L 502.624364 -253.279228
L 502.626738 -253.165649
L 502.629573 -253.05207
L 502.632924 -252.938491
L 502.636847 -252.824913
L 502.64139 -252.711334
L 502.646596 -252.597755
L 502.6525 -252.484176
L 502.65912 -252.370597
L 502.666462 -252.257019
L 502.674511 -252.14344
L 502.68323 -252.029861
L 502.692561 -251.916282
L 502.702421 -251.802704
L 502.7127 -251.689125
L 502.723267 -251.575546
L 502.73397 -251.461967
L 502.744638 -251.348389
L 502.755088 -251.23481
L 502.765129 -251.121231
L 502.774571 -251.007652
L 502.783232 -250.894074
L 502.790944 -250.780495
L 502.797563 -250.666916
L 502.802977 -250.553337
L 502.807108 -250.439759
L 502.809924 -250.32618
L 502.811438 -250.212601
L 502.811712 -250.099022
L 502.810856 -249.985444
L 502.80903 -249.871865
L 502.806433 -249.758286
L 502.803306 -249.644707
L 502.799916 -249.531129
L 502.796555 -249.41755
L 502.793526 -249.303971
L 502.791135 -249.190392
L 502.789679 -249.076813
L 502.789436 -248.963235
L 502.790658 -248.849656
L 502.793561 -248.736077
L 502.798314 -248.622498
L 502.805041 -248.50892
L 502.813809 -248.395341
L 502.824629 -248.281762
L 502.837456 -248.168183
L 502.852189 -248.054605
L 502.868671 -247.941026
L 502.886698 -247.827447
L 502.906023 -247.713868
L 502.926363 -247.60029
L 502.947406 -247.486711
L 502.968823 -247.373132
L 502.990274 -247.259553
L 503.011422 -247.145975
L 503.031942 -247.032396
L 503.051528 -246.918817
L 503.069906 -246.805238
L 503.086843 -246.69166
L 503.10215 -246.578081
L 503.115692 -246.464502
L 503.127395 -246.350923
L 503.137242 -246.237345
L 503.145282 -246.123766
L 503.151623 -246.010187
L 503.156436 -245.896608
L 503.159943 -245.783029
L 503.162418 -245.669451
L 503.164174 -245.555872
L 503.165553 -245.442293
L 503.166919 -245.328714
L 503.168642 -245.215136
L 503.17109 -245.101557
L 503.174612 -244.987978
L 503.17953 -244.874399
L 503.186126 -244.760821
L 503.194636 -244.647242
L 503.205241 -244.533663
L 503.218063 -244.420084
L 503.233164 -244.306506
L 503.250546 -244.192927
L 503.270157 -244.079348
L 503.291896 -243.965769
L 503.315621 -243.852191
L 503.341162 -243.738612
L 503.368332 -243.625033
L 503.396938 -243.511454
L 503.426792 -243.397876
L 503.457725 -243.284297
L 503.489592 -243.170718
L 503.522279 -243.057139
L 503.555707 -242.943561
L 503.589833 -242.829982
L 503.624644 -242.716403
L 503.660153 -242.602824
L 503.696391 -242.489245
L 503.733394 -242.375667
L 503.771196 -242.262088
L 503.809811 -242.148509
L 503.849229 -242.03493
L 503.889402 -241.921352
L 503.93024 -241.807773
L 503.971609 -241.694194
L 504.013329 -241.580615
L 504.055182 -241.467037
L 504.096921 -241.353458
L 504.138283 -241.239879
L 504.179004 -241.1263
L 504.218839 -241.012722
L 504.257583 -240.899143
L 504.295088 -240.785564
L 504.331284 -240.671985
L 504.366194 -240.558407
L 504.399943 -240.444828
L 504.432773 -240.331249
L 504.465035 -240.21767
L 504.497194 -240.104092
L 504.52981 -239.990513
L 504.563532 -239.876934
L 504.599067 -239.763355
L 504.637164 -239.649776
L 504.67858 -239.536198
L 504.724056 -239.422619
L 504.774284 -239.30904
L 504.829881 -239.195461
L 504.891369 -239.081883
L 504.959151 -238.968304
L 505.0335 -238.854725
L 505.114553 -238.741146
L 505.202307 -238.627568
L 505.296634 -238.513989
L 505.397287 -238.40041
L 505.503922 -238.286831
L 505.616127 -238.173253
L 505.733445 -238.059674
L 505.855407 -237.946095
L 505.981562 -237.832516
L 506.111506 -237.718938
L 506.244908 -237.605359
L 506.381532 -237.49178
L 506.521254 -237.378201
L 506.664067 -237.264623
L 506.810085 -237.151044
L 506.959537 -237.037465
L 507.112756 -236.923886
L 507.270154 -236.810308
L 507.432205 -236.696729
L 507.59941 -236.58315
L 507.772273 -236.469571
L 507.951269 -236.355992
L 508.136815 -236.242414
L 508.329247 -236.128835
L 508.528803 -236.015256
L 508.735607 -235.901677
L 508.94967 -235.788099
L 509.170886 -235.67452
L 509.399047 -235.560941
L 509.633861 -235.447362
L 509.874971 -235.333784
L 510.121984 -235.220205
L 510.374502 -235.106626
L 510.632152 -234.993047
L 510.894613 -234.879469
L 511.161645 -234.76589
L 511.433107 -234.652311
L 511.70898 -234.538732
L 511.989371 -234.425154
L 512.274518 -234.311575
L 512.564793 -234.197996
L 512.86069 -234.084417
L 513.162811 -233.970839
L 513.471856 -233.85726
L 513.788599 -233.743681
L 514.11387 -233.630102
L 514.448534 -233.516524
L 514.793467 -233.402945
L 515.149537 -233.289366
L 515.517585 -233.175787
L 515.898402 -233.062208
L 516.292714 -232.94863
L 516.70116 -232.835051
L 517.124282 -232.721472
L 517.562508 -232.607893
L 518.016141 -232.494315
L 518.485351 -232.380736
L 518.970172 -232.267157
L 519.470502 -232.153578
L 519.986109 -232.04
L 520.51664 -231.926421
L 521.06164 -231.812842
L 521.620565 -231.699263
L 522.192798 -231.585685
L 522.777669 -231.472106
L 523.374454 -231.358527
L 523.982379 -231.244948
L 524.600595 -231.13137
L 525.228147 -231.017791
L 525.863915 -230.904212
L 526.506541 -230.790633
L 527.154335 -230.677055
L 527.805169 -230.563476
L 528.456363 -230.449897
L 529.104572 -230.336318
L 529.745687 -230.22274
L 530.374757 -230.109161
L 530.985942 -229.995582
L 531.572515 -229.882003
L 532.126909 -229.768424
L 532.640822 -229.654846
L 533.105381 -229.541267
L 533.511352 -229.427688
L 533.849399 -229.314109
L 534.110378 -229.200531
L 534.285647 -229.086952
L 534.367377 -228.973373
L 534.348853 -228.859794
L 534.224739 -228.746216
L 533.991293 -228.632637
L 533.646532 -228.519058
L 533.190322 -228.405479
L 532.624403 -228.291901
L 531.952342 -228.178322
L 531.179427 -228.064743
L 530.312505 -227.951164
L 529.359774 -227.837586
L 528.33055 -227.724007
L 527.235018 -227.610428
L 526.083976 -227.496849
L 524.88859 -227.383271
L 523.660158 -227.269692
L 522.409907 -227.156113
L 521.148803 -227.042534
L 519.887397 -226.928955
L 518.635688 -226.815377
L 517.40302 -226.701798
L 516.197986 -226.588219
L 515.028364 -226.47464
L 513.901056 -226.361062
L 512.82205 -226.247483
z
" style="stroke: #cc79a7; stroke-opacity: 0.25"/>
    </defs>
    <g clip-path="url(#pde1850483e)">
     <use xlink:href="#ma6b51dd732" x="0" y="301.183008" style="fill: #cc79a7; fill-opacity: 0.25; stroke: #cc79a7; stroke-opacity: 0.25"/>
    </g>
   </g>
   <g id="matplotlib.axis_3"/>
   <g id="matplotlib.axis_4">
    <g id="ytick_6">
     <g id="line2d_19">
      <g>
       <use xlink:href="#m4ba62cf250" x="343.851747" y="75.763819" style="fill: #48545f; stroke: #48545f; stroke-width: 0.8"/>
      </g>
     </g>
     <g id="text_16">
      <text style="font-size: 9px; font-family: 'Arial'; text-anchor: end; fill: #48545f" x="336.851747" y="78.984835" transform="rotate(-0 336.851747 78.984835)">0</text>
     </g>
    </g>
    <g id="ytick_7">
     <g id="line2d_20">
      <g>
       <use xlink:href="#m4ba62cf250" x="343.851747" y="34.349126" style="fill: #48545f; stroke: #48545f; stroke-width: 0.8"/>
      </g>
     </g>
     <g id="text_17">
      <text style="font-size: 9px; font-family: 'Arial'; text-anchor: end; fill: #48545f" x="336.851747" y="37.570141" transform="rotate(-0 336.851747 37.570141)">50</text>
     </g>
    </g>
   </g>
   <g id="patch_6">
    <path d="M 343.851747 75.763819
L 343.851747 30.207656
" style="fill: none; stroke: #a9b2ba; stroke-width: 0.7; stroke-linejoin: miter; stroke-linecap: square"/>
   </g>
   <g id="text_18">
    <text style="font-size: 8px; font-family: 'Arial'; text-anchor: middle; fill: #8064a2" x="403.387881" y="38.557183" transform="rotate(-0 403.387881 38.557183)">41</text>
   </g>
   <g id="text_19">
    <text style="font-size: 8px; font-family: 'Arial'; text-anchor: middle; fill: #cc79a7" x="502.614772" y="37.728889" transform="rotate(-0 502.614772 37.728889)">42</text>
   </g>
   <g id="text_20">
    <text style="font-size: 8.2px; font-family: 'Arial'; text-anchor: middle; fill: #66737e" x="453.001326" y="28.026251" transform="rotate(-0 453.001326 28.026251)">Full range · numbers indicate maxima</text>
   </g>
   <g id="text_21">
    <text style="font-weight: 700; font-size: 11px; font-family: 'Arial'; text-anchor: start; fill: #243443" x="343.851747" y="15.207656" transform="rotate(-0 343.851747 15.207656)">(b) Reviewed span lengths</text>
   </g>
  </g>
  <g id="axes_3">
   <g id="patch_7">
    <path d="M 343.851747 238.467656
L 562.150906 238.467656
L 562.150906 97.24355
L 343.851747 97.24355
z
" style="fill: #ffffff"/>
   </g>
   <g id="matplotlib.axis_5">
    <g id="xtick_7">
     <g id="line2d_21">
      <g>
       <use xlink:href="#mba22c64279" x="403.387881" y="238.467656" style="fill: #48545f; stroke: #48545f; stroke-width: 0.8"/>
      </g>
     </g>
     <g id="text_22">
      <text style="font-size: 8.5px; font-family: 'Arial'; fill: #48545f" transform="translate(381.892842 251.551797)">Reviewer A</text>
      <text style="font-size: 8.5px; font-family: 'Arial'; fill: #48545f" transform="translate(380.946553 260.666453)">(358 spans)</text>
     </g>
    </g>
    <g id="xtick_8">
     <g id="line2d_22">
      <g>
       <use xlink:href="#mba22c64279" x="502.614772" y="238.467656" style="fill: #48545f; stroke: #48545f; stroke-width: 0.8"/>
      </g>
     </g>
     <g id="text_23">
      <text style="font-size: 8.5px; font-family: 'Arial'; fill: #48545f" transform="translate(480.885983 251.551797)">Reviewer B</text>
      <text style="font-size: 8.5px; font-family: 'Arial'; fill: #48545f" transform="translate(480.173444 260.666453)">(365 spans)</text>
     </g>
    </g>
   </g>
   <g id="matplotlib.axis_6">
    <g id="ytick_8">
     <g id="line2d_23">
      <path d="M 343.851747 238.467656
L 562.150906 238.467656
" clip-path="url(#pe31d46f124)" style="fill: none; stroke: #e7eaee; stroke-width: 0.7; stroke-linecap: square"/>
     </g>
     <g id="line2d_24">
      <g>
       <use xlink:href="#m4ba62cf250" x="343.851747" y="238.467656" style="fill: #48545f; stroke: #48545f; stroke-width: 0.8"/>
      </g>
     </g>
     <g id="text_24">
      <text style="font-size: 9px; font-family: 'Arial'; text-anchor: end; fill: #48545f" x="336.851747" y="241.688672" transform="rotate(-0 336.851747 241.688672)">0</text>
     </g>
    </g>
    <g id="ytick_9">
     <g id="line2d_25">
      <path d="M 343.851747 203.16163
L 562.150906 203.16163
" clip-path="url(#pe31d46f124)" style="fill: none; stroke: #e7eaee; stroke-width: 0.7; stroke-linecap: square"/>
     </g>
     <g id="line2d_26">
      <g>
       <use xlink:href="#m4ba62cf250" x="343.851747" y="203.16163" style="fill: #48545f; stroke: #48545f; stroke-width: 0.8"/>
      </g>
     </g>
     <g id="text_25">
      <text style="font-size: 9px; font-family: 'Arial'; text-anchor: end; fill: #48545f" x="336.851747" y="206.382645" transform="rotate(-0 336.851747 206.382645)">5</text>
     </g>
    </g>
    <g id="ytick_10">
     <g id="line2d_27">
      <path d="M 343.851747 167.855603
L 562.150906 167.855603
" clip-path="url(#pe31d46f124)" style="fill: none; stroke: #e7eaee; stroke-width: 0.7; stroke-linecap: square"/>
     </g>
     <g id="line2d_28">
      <g>
       <use xlink:href="#m4ba62cf250" x="343.851747" y="167.855603" style="fill: #48545f; stroke: #48545f; stroke-width: 0.8"/>
      </g>
     </g>
     <g id="text_26">
      <text style="font-size: 9px; font-family: 'Arial'; text-anchor: end; fill: #48545f" x="336.851747" y="171.076619" transform="rotate(-0 336.851747 171.076619)">10</text>
     </g>
    </g>
    <g id="ytick_11">
     <g id="line2d_29">
      <path d="M 343.851747 132.549577
L 562.150906 132.549577
" clip-path="url(#pe31d46f124)" style="fill: none; stroke: #e7eaee; stroke-width: 0.7; stroke-linecap: square"/>
     </g>
     <g id="line2d_30">
      <g>
       <use xlink:href="#m4ba62cf250" x="343.851747" y="132.549577" style="fill: #48545f; stroke: #48545f; stroke-width: 0.8"/>
      </g>
     </g>
     <g id="text_27">
      <text style="font-size: 9px; font-family: 'Arial'; text-anchor: end; fill: #48545f" x="336.851747" y="135.770592" transform="rotate(-0 336.851747 135.770592)">15</text>
     </g>
    </g>
    <g id="ytick_12">
     <g id="line2d_31">
      <path d="M 343.851747 97.24355
L 562.150906 97.24355
" clip-path="url(#pe31d46f124)" style="fill: none; stroke: #e7eaee; stroke-width: 0.7; stroke-linecap: square"/>
     </g>
     <g id="line2d_32">
      <g>
       <use xlink:href="#m4ba62cf250" x="343.851747" y="97.24355" style="fill: #48545f; stroke: #48545f; stroke-width: 0.8"/>
      </g>
     </g>
     <g id="text_28">
      <text style="font-size: 9px; font-family: 'Arial'; text-anchor: end; fill: #48545f" x="336.851747" y="100.464566" transform="rotate(-0 336.851747 100.464566)">20</text>
     </g>
    </g>
    <g id="text_29">
     <text style="font-size: 10px; font-family: 'Arial'; text-anchor: middle; fill: #243443" x="320.737372" y="167.855603" transform="rotate(-90 320.737372 167.855603)">Span length (Unicode code points)</text>
    </g>
   </g>
   <g id="FillBetweenPolyCollection_3">
    <defs>
     <path id="m5b99c6a2f9" d="M 412.515231 -69.776558
L 394.260531 -69.776558
L 393.192703 -70.7212
L 392.071948 -71.665843
L 390.904411 -72.610486
L 389.696978 -73.555129
L 388.457199 -74.499772
L 387.193223 -75.444415
L 385.913756 -76.389057
L 384.628033 -77.3337
L 383.345807 -78.278343
L 382.077331 -79.222986
L 380.833334 -80.167629
L 379.624957 -81.112272
L 378.463645 -82.056915
L 377.360989 -83.001557
L 376.328497 -83.9462
L 375.377308 -84.890843
L 374.517855 -85.835486
L 373.759498 -86.780129
L 373.110147 -87.724772
L 372.575913 -88.669415
L 372.160809 -89.614057
L 371.866541 -90.5587
L 371.692399 -91.503343
L 371.635276 -92.447986
L 371.689812 -93.392629
L 371.84866 -94.337272
L 372.102847 -95.281914
L 372.442218 -96.226557
L 372.855912 -97.1712
L 373.332842 -98.115843
L 373.862149 -99.060486
L 374.433574 -100.005129
L 375.037761 -100.949772
L 375.666438 -101.894414
L 376.312506 -102.839057
L 376.970019 -103.7837
L 377.634086 -104.728343
L 378.300713 -105.672986
L 378.966605 -106.617629
L 379.628973 -107.562271
L 380.285344 -108.506914
L 380.933421 -109.451557
L 381.570984 -110.3962
L 382.195854 -111.340843
L 382.805902 -112.285486
L 383.399118 -113.230129
L 383.973696 -114.174771
L 384.52815 -115.119414
L 385.061426 -116.064057
L 385.573 -117.0087
L 386.062944 -117.953343
L 386.531961 -118.897986
L 386.981374 -119.842629
L 387.413071 -120.787271
L 387.829412 -121.731914
L 388.233102 -122.676557
L 388.627044 -123.6212
L 389.014179 -124.565843
L 389.39732 -125.510486
L 389.779012 -126.455128
L 390.161392 -127.399771
L 390.546097 -128.344414
L 390.93419 -129.289057
L 391.326129 -130.2337
L 391.721767 -131.178343
L 392.120387 -132.122986
L 392.520767 -133.067628
L 392.921262 -134.012271
L 393.319904 -134.956914
L 393.714514 -135.901557
L 394.102812 -136.8462
L 394.482524 -137.790843
L 394.85148 -138.735485
L 395.207699 -139.680128
L 395.549454 -140.624771
L 395.875325 -141.569414
L 396.184232 -142.514057
L 396.475447 -143.4587
L 396.748595 -144.403343
L 397.003643 -145.347985
L 397.240876 -146.292628
L 397.460863 -147.237271
L 397.664428 -148.181914
L 397.852603 -149.126557
L 398.026598 -150.0712
L 398.187755 -151.015843
L 398.337513 -151.960485
L 398.477375 -152.905128
L 398.608872 -153.849771
L 398.733532 -154.794414
L 398.852851 -155.739057
L 398.968264 -156.6837
L 399.081123 -157.628342
L 399.192671 -158.572985
L 399.304018 -159.517628
L 399.41613 -160.462271
L 399.52981 -161.406914
L 399.645685 -162.351557
L 399.764205 -163.2962
L 399.885638 -164.240842
L 400.010072 -165.185485
L 400.137422 -166.130128
L 400.267442 -167.074771
L 400.399741 -168.019414
L 400.533795 -168.964057
L 400.668972 -169.908699
L 400.804551 -170.853342
L 400.939745 -171.797985
L 401.073726 -172.742628
L 401.205647 -173.687271
L 401.33467 -174.631914
L 401.459983 -175.576557
L 401.580828 -176.521199
L 401.696521 -177.465842
L 401.806466 -178.410485
L 401.910176 -179.355128
L 402.00728 -180.299771
L 402.097529 -181.244414
L 402.180799 -182.189057
L 402.257087 -183.133699
L 402.326498 -184.078342
L 402.389235 -185.022985
L 402.445573 -185.967628
L 402.495849 -186.912271
L 402.540431 -187.856914
L 402.5797 -188.801556
L 402.614033 -189.746199
L 402.643788 -190.690842
L 402.669294 -191.635485
L 402.690846 -192.580128
L 402.708711 -193.524771
L 402.723133 -194.469414
L 402.734344 -195.414056
L 402.742582 -196.358699
L 402.748105 -197.303342
L 402.751202 -198.247985
L 402.752211 -199.192628
L 402.751523 -200.137271
L 402.749584 -201.081914
L 402.746891 -202.026556
L 402.74398 -202.971199
L 402.741413 -203.915842
L 402.739751 -204.860485
L 402.739534 -205.805128
L 402.74125 -206.749771
L 402.745316 -207.694413
L 402.752048 -208.639056
L 402.761646 -209.583699
L 402.774182 -210.528342
L 402.789592 -211.472985
L 402.807678 -212.417628
L 402.828119 -213.362271
L 402.850487 -214.306913
L 402.874268 -215.251556
L 402.898891 -216.196199
L 402.923756 -217.140842
L 402.948265 -218.085485
L 402.97185 -219.030128
L 402.994002 -219.97477
L 403.01429 -220.919413
L 403.032381 -221.864056
L 403.048044 -222.808699
L 403.06116 -223.753342
L 403.071714 -224.697985
L 403.07979 -225.642628
L 403.085555 -226.58727
L 403.089242 -227.531913
L 403.091137 -228.476556
L 403.091552 -229.421199
L 403.090815 -230.365842
L 403.089248 -231.310485
L 403.08716 -232.255128
L 403.084834 -233.19977
L 403.082523 -234.144413
L 403.080445 -235.089056
L 403.078791 -236.033699
L 403.07772 -236.978342
L 403.077366 -237.922985
L 403.077846 -238.867627
L 403.079259 -239.81227
L 403.081691 -240.756913
L 403.085215 -241.701556
L 403.089895 -242.646199
L 403.095778 -243.590842
L 403.102895 -244.535485
L 403.111254 -245.480127
L 403.120839 -246.42477
L 403.131605 -247.369413
L 403.143475 -248.314056
L 403.15634 -249.258699
L 403.17006 -250.203342
L 403.184468 -251.147984
L 403.199375 -252.092627
L 403.214577 -253.03727
L 403.229861 -253.981913
L 403.245015 -254.926556
L 403.259837 -255.871199
L 403.274139 -256.815842
L 403.287758 -257.760484
L 403.300558 -258.705127
L 403.312433 -259.64977
L 403.323311 -260.594413
L 403.333149 -261.539056
L 403.341936 -262.483699
L 403.349688 -263.428342
L 403.356444 -264.372984
L 403.362261 -265.317627
L 403.367208 -266.26227
L 403.371367 -267.206913
L 403.374821 -268.151556
L 403.377656 -269.096199
L 403.379956 -270.040841
L 403.381801 -270.985484
L 403.383264 -271.930127
L 403.38441 -272.87477
L 403.385299 -273.819413
L 403.385979 -274.764056
L 403.386494 -275.708699
L 403.38688 -276.653341
L 403.387166 -277.597984
L 403.387376 -278.542627
L 403.387528 -279.48727
L 403.387636 -280.431913
L 403.387713 -281.376556
L 403.387767 -282.321198
L 403.387805 -283.265841
L 403.38783 -284.210484
L 403.387848 -285.155127
L 403.387859 -286.09977
L 403.387867 -287.044413
L 403.387872 -287.989056
L 403.387875 -288.933698
L 403.387878 -289.878341
L 403.387879 -290.822984
L 403.38788 -291.767627
L 403.38788 -292.71227
L 403.387881 -293.656913
L 403.387881 -294.601556
L 403.387881 -295.546198
L 403.387881 -296.490841
L 403.387881 -297.435484
L 403.387881 -298.380127
L 403.387881 -299.32477
L 403.387881 -300.269413
L 403.387881 -301.214055
L 403.387881 -302.158698
L 403.387881 -303.103341
L 403.387881 -304.047984
L 403.387881 -304.992627
L 403.38788 -305.93727
L 403.38788 -306.881913
L 403.387879 -307.826555
L 403.387877 -308.771198
L 403.387875 -309.715841
L 403.387872 -310.660484
L 403.387866 -311.605127
L 403.387858 -312.54977
L 403.387846 -313.494412
L 403.387828 -314.439055
L 403.387801 -315.383698
L 403.387762 -316.328341
L 403.387705 -317.272984
L 403.387625 -318.217627
L 403.387512 -319.16227
L 403.387354 -320.106912
L 403.387137 -321.051555
L 403.386841 -321.996198
L 403.386442 -322.940841
L 403.38591 -323.885484
L 403.38521 -324.830127
L 403.384297 -325.77477
L 403.383123 -326.719412
L 403.381629 -327.664055
L 403.37975 -328.608698
L 403.377414 -329.553341
L 403.374546 -330.497984
L 403.371066 -331.442627
L 403.366895 -332.387269
L 403.361959 -333.331912
L 403.356189 -334.276555
L 403.349532 -335.221198
L 403.341952 -336.165841
L 403.333439 -337.110484
L 403.324009 -338.055127
L 403.313714 -338.999769
L 403.302643 -339.944412
L 403.290924 -340.889055
L 403.278724 -341.833698
L 403.266249 -342.778341
L 403.253738 -343.722984
L 403.241457 -344.667626
L 403.22969 -345.612269
L 403.218731 -346.556912
L 403.208866 -347.501555
L 403.200368 -348.446198
L 403.193481 -349.390841
L 403.188407 -350.335484
L 403.185299 -351.280126
L 403.184253 -352.224769
L 403.591509 -352.224769
L 403.591509 -352.224769
L 403.590463 -351.280126
L 403.587355 -350.335484
L 403.582281 -349.390841
L 403.575394 -348.446198
L 403.566896 -347.501555
L 403.557032 -346.556912
L 403.546072 -345.612269
L 403.534305 -344.667626
L 403.522024 -343.722984
L 403.509513 -342.778341
L 403.497038 -341.833698
L 403.484838 -340.889055
L 403.473119 -339.944412
L 403.462048 -338.999769
L 403.451753 -338.055127
L 403.442323 -337.110484
L 403.43381 -336.165841
L 403.42623 -335.221198
L 403.419573 -334.276555
L 403.413803 -333.331912
L 403.408867 -332.387269
L 403.404696 -331.442627
L 403.401216 -330.497984
L 403.398348 -329.553341
L 403.396012 -328.608698
L 403.394133 -327.664055
L 403.392639 -326.719412
L 403.391465 -325.77477
L 403.390553 -324.830127
L 403.389852 -323.885484
L 403.389321 -322.940841
L 403.388921 -321.996198
L 403.388625 -321.051555
L 403.388408 -320.106912
L 403.38825 -319.16227
L 403.388137 -318.217627
L 403.388057 -317.272984
L 403.388001 -316.328341
L 403.387961 -315.383698
L 403.387935 -314.439055
L 403.387916 -313.494412
L 403.387904 -312.54977
L 403.387896 -311.605127
L 403.387891 -310.660484
L 403.387887 -309.715841
L 403.387885 -308.771198
L 403.387883 -307.826555
L 403.387882 -306.881913
L 403.387882 -305.93727
L 403.387882 -304.992627
L 403.387881 -304.047984
L 403.387881 -303.103341
L 403.387881 -302.158698
L 403.387881 -301.214055
L 403.387881 -300.269413
L 403.387881 -299.32477
L 403.387881 -298.380127
L 403.387881 -297.435484
L 403.387881 -296.490841
L 403.387881 -295.546198
L 403.387881 -294.601556
L 403.387882 -293.656913
L 403.387882 -292.71227
L 403.387882 -291.767627
L 403.387883 -290.822984
L 403.387885 -289.878341
L 403.387887 -288.933698
L 403.38789 -287.989056
L 403.387895 -287.044413
L 403.387903 -286.09977
L 403.387914 -285.155127
L 403.387932 -284.210484
L 403.387958 -283.265841
L 403.387995 -282.321198
L 403.388049 -281.376556
L 403.388126 -280.431913
L 403.388235 -279.48727
L 403.388386 -278.542627
L 403.388596 -277.597984
L 403.388882 -276.653341
L 403.389268 -275.708699
L 403.389783 -274.764056
L 403.390464 -273.819413
L 403.391352 -272.87477
L 403.392498 -271.930127
L 403.393961 -270.985484
L 403.395806 -270.040841
L 403.398106 -269.096199
L 403.400941 -268.151556
L 403.404396 -267.206913
L 403.408554 -266.26227
L 403.413502 -265.317627
L 403.419318 -264.372984
L 403.426074 -263.428342
L 403.433826 -262.483699
L 403.442614 -261.539056
L 403.452452 -260.594413
L 403.463329 -259.64977
L 403.475204 -258.705127
L 403.488004 -257.760484
L 403.501623 -256.815842
L 403.515925 -255.871199
L 403.530747 -254.926556
L 403.545901 -253.981913
L 403.561185 -253.03727
L 403.576387 -252.092627
L 403.591294 -251.147984
L 403.605702 -250.203342
L 403.619422 -249.258699
L 403.632287 -248.314056
L 403.644157 -247.369413
L 403.654923 -246.42477
L 403.664508 -245.480127
L 403.672868 -244.535485
L 403.679984 -243.590842
L 403.685867 -242.646199
L 403.690547 -241.701556
L 403.694071 -240.756913
L 403.696503 -239.81227
L 403.697916 -238.867627
L 403.698396 -237.922985
L 403.698042 -236.978342
L 403.696971 -236.033699
L 403.695317 -235.089056
L 403.693239 -234.144413
L 403.690928 -233.19977
L 403.688602 -232.255128
L 403.686514 -231.310485
L 403.684947 -230.365842
L 403.68421 -229.421199
L 403.684625 -228.476556
L 403.68652 -227.531913
L 403.690207 -226.58727
L 403.695972 -225.642628
L 403.704048 -224.697985
L 403.714602 -223.753342
L 403.727718 -222.808699
L 403.743382 -221.864056
L 403.761472 -220.919413
L 403.78176 -219.97477
L 403.803912 -219.030128
L 403.827497 -218.085485
L 403.852006 -217.140842
L 403.876871 -216.196199
L 403.901494 -215.251556
L 403.925275 -214.306913
L 403.947643 -213.362271
L 403.968085 -212.417628
L 403.98617 -211.472985
L 404.00158 -210.528342
L 404.014116 -209.583699
L 404.023715 -208.639056
L 404.030446 -207.694413
L 404.034512 -206.749771
L 404.036228 -205.805128
L 404.036011 -204.860485
L 404.034349 -203.915842
L 404.031782 -202.971199
L 404.028871 -202.026556
L 404.026178 -201.081914
L 404.024239 -200.137271
L 404.023551 -199.192628
L 404.02456 -198.247985
L 404.027657 -197.303342
L 404.03318 -196.358699
L 404.041418 -195.414056
L 404.052629 -194.469414
L 404.067051 -193.524771
L 404.084916 -192.580128
L 404.106468 -191.635485
L 404.131974 -190.690842
L 404.161729 -189.746199
L 404.196062 -188.801556
L 404.235331 -187.856914
L 404.279913 -186.912271
L 404.330189 -185.967628
L 404.386527 -185.022985
L 404.449264 -184.078342
L 404.518675 -183.133699
L 404.594963 -182.189057
L 404.678234 -181.244414
L 404.768482 -180.299771
L 404.865586 -179.355128
L 404.969296 -178.410485
L 405.079241 -177.465842
L 405.194934 -176.521199
L 405.315779 -175.576557
L 405.441092 -174.631914
L 405.570115 -173.687271
L 405.702036 -172.742628
L 405.836017 -171.797985
L 405.971211 -170.853342
L 406.10679 -169.908699
L 406.241967 -168.964057
L 406.376021 -168.019414
L 406.50832 -167.074771
L 406.63834 -166.130128
L 406.76569 -165.185485
L 406.890124 -164.240842
L 407.011557 -163.2962
L 407.130077 -162.351557
L 407.245952 -161.406914
L 407.359632 -160.462271
L 407.471744 -159.517628
L 407.583092 -158.572985
L 407.694639 -157.628342
L 407.807498 -156.6837
L 407.922911 -155.739057
L 408.04223 -154.794414
L 408.16689 -153.849771
L 408.298387 -152.905128
L 408.438249 -151.960485
L 408.588007 -151.015843
L 408.749164 -150.0712
L 408.923159 -149.126557
L 409.111334 -148.181914
L 409.314899 -147.237271
L 409.534886 -146.292628
L 409.772119 -145.347985
L 410.027167 -144.403343
L 410.300315 -143.4587
L 410.59153 -142.514057
L 410.900437 -141.569414
L 411.226309 -140.624771
L 411.568063 -139.680128
L 411.924282 -138.735485
L 412.293238 -137.790843
L 412.67295 -136.8462
L 413.061248 -135.901557
L 413.455858 -134.956914
L 413.8545 -134.012271
L 414.254995 -133.067628
L 414.655375 -132.122986
L 415.053996 -131.178343
L 415.449633 -130.2337
L 415.841572 -129.289057
L 416.229665 -128.344414
L 416.61437 -127.399771
L 416.99675 -126.455128
L 417.378442 -125.510486
L 417.761584 -124.565843
L 418.148718 -123.6212
L 418.54266 -122.676557
L 418.94635 -121.731914
L 419.362691 -120.787271
L 419.794388 -119.842629
L 420.243801 -118.897986
L 420.712818 -117.953343
L 421.202762 -117.0087
L 421.714336 -116.064057
L 422.247612 -115.119414
L 422.802066 -114.174771
L 423.376644 -113.230129
L 423.96986 -112.285486
L 424.579909 -111.340843
L 425.204778 -110.3962
L 425.842341 -109.451557
L 426.490418 -108.506914
L 427.146789 -107.562271
L 427.809157 -106.617629
L 428.475049 -105.672986
L 429.141676 -104.728343
L 429.805743 -103.7837
L 430.463256 -102.839057
L 431.109324 -101.894414
L 431.738001 -100.949772
L 432.342188 -100.005129
L 432.913613 -99.060486
L 433.44292 -98.115843
L 433.91985 -97.1712
L 434.333544 -96.226557
L 434.672915 -95.281914
L 434.927102 -94.337272
L 435.08595 -93.392629
L 435.140486 -92.447986
L 435.083363 -91.503343
L 434.909221 -90.5587
L 434.614953 -89.614057
L 434.199849 -88.669415
L 433.665615 -87.724772
L 433.016264 -86.780129
L 432.257907 -85.835486
L 431.398454 -84.890843
L 430.447265 -83.9462
L 429.414773 -83.001557
L 428.312118 -82.056915
L 427.150805 -81.112272
L 425.942428 -80.167629
L 424.698431 -79.222986
L 423.429955 -78.278343
L 422.147729 -77.3337
L 420.862006 -76.389057
L 419.582539 -75.444415
L 418.318563 -74.499772
L 417.078785 -73.555129
L 415.871351 -72.610486
L 414.703814 -71.665843
L 413.583059 -70.7212
L 412.515231 -69.776558
z
" style="stroke: #8064a2; stroke-opacity: 0.43"/>
    </defs>
    <g clip-path="url(#pe31d46f124)">
     <use xlink:href="#m5b99c6a2f9" x="0" y="301.183008" style="fill: #8064a2; fill-opacity: 0.43; stroke: #8064a2; stroke-opacity: 0.43"/>
    </g>
   </g>
   <g id="FillBetweenPolyCollection_4">
    <defs>
     <path id="me2a1e6879c" d="M 512.82205 -69.776558
L 492.407494 -69.776558
L 491.328487 -70.744816
L 490.20118 -71.713075
L 489.031558 -72.681334
L 487.826524 -73.649593
L 486.593856 -74.617852
L 485.342147 -75.586111
L 484.08074 -76.55437
L 482.819636 -77.522629
L 481.569385 -78.490888
L 480.340954 -79.459147
L 479.145567 -80.427406
L 477.994526 -81.395665
L 476.898994 -82.363923
L 475.86977 -83.332182
L 474.917039 -84.300441
L 474.050116 -85.2687
L 473.277202 -86.236959
L 472.605141 -87.205218
L 472.039222 -88.173477
L 471.583012 -89.141736
L 471.238251 -90.109995
L 471.004805 -91.078254
L 470.88069 -92.046513
L 470.862167 -93.014772
L 470.943897 -93.983031
L 471.119166 -94.951289
L 471.380145 -95.919548
L 471.718192 -96.887807
L 472.124162 -97.856066
L 472.588721 -98.824325
L 473.102635 -99.792584
L 473.657029 -100.760843
L 474.243601 -101.729102
L 474.854787 -102.697361
L 475.483856 -103.66562
L 476.124972 -104.633879
L 476.773181 -105.602138
L 477.424374 -106.570396
L 478.075208 -107.538655
L 478.723002 -108.506914
L 479.365628 -109.475173
L 480.001396 -110.443432
L 480.628948 -111.411691
L 481.247165 -112.37995
L 481.855089 -113.348209
L 482.451875 -114.316468
L 483.036745 -115.284727
L 483.608979 -116.252986
L 484.167903 -117.221245
L 484.712903 -118.189504
L 485.243435 -119.157762
L 485.759041 -120.126021
L 486.259371 -121.09428
L 486.744192 -122.062539
L 487.213403 -123.030798
L 487.667036 -123.999057
L 488.105262 -124.967316
L 488.528384 -125.935575
L 488.93683 -126.903834
L 489.331141 -127.872093
L 489.711958 -128.840352
L 490.080006 -129.808611
L 490.436077 -130.776869
L 490.78101 -131.745128
L 491.115673 -132.713387
L 491.440945 -133.681646
L 491.757688 -134.649905
L 492.066733 -135.618164
L 492.368854 -136.586423
L 492.66475 -137.554682
L 492.955026 -138.522941
L 493.240173 -139.4912
L 493.520563 -140.459459
L 493.796436 -141.427718
L 494.067899 -142.395977
L 494.33493 -143.364235
L 494.597391 -144.332494
L 494.855041 -145.300753
L 495.10756 -146.269012
L 495.354573 -147.237271
L 495.595683 -148.20553
L 495.830496 -149.173789
L 496.058658 -150.142048
L 496.279874 -151.110307
L 496.493936 -152.078566
L 496.700741 -153.046825
L 496.900297 -154.015084
L 497.092729 -154.983342
L 497.278274 -155.951601
L 497.45727 -156.91986
L 497.630134 -157.888119
L 497.797339 -158.856378
L 497.959389 -159.824637
L 498.116788 -160.792896
L 498.270006 -161.761155
L 498.419459 -162.729414
L 498.565477 -163.697673
L 498.708289 -164.665932
L 498.848011 -165.634191
L 498.984636 -166.60245
L 499.118038 -167.570708
L 499.247982 -168.538967
L 499.374136 -169.507226
L 499.496098 -170.475485
L 499.613416 -171.443744
L 499.725621 -172.412003
L 499.832257 -173.380262
L 499.932909 -174.348521
L 500.027236 -175.31678
L 500.114991 -176.285039
L 500.196044 -177.253298
L 500.270393 -178.221557
L 500.338175 -179.189815
L 500.399663 -180.158074
L 500.45526 -181.126333
L 500.505487 -182.094592
L 500.550963 -183.062851
L 500.59238 -184.03111
L 500.630476 -184.999369
L 500.666012 -185.967628
L 500.699733 -186.935887
L 500.73235 -187.904146
L 500.764508 -188.872405
L 500.796771 -189.840664
L 500.8296 -190.808923
L 500.86335 -191.777181
L 500.898259 -192.74544
L 500.934455 -193.713699
L 500.971961 -194.681958
L 501.010704 -195.650217
L 501.05054 -196.618476
L 501.091261 -197.586735
L 501.132622 -198.554994
L 501.174361 -199.523253
L 501.216215 -200.491512
L 501.257935 -201.459771
L 501.299303 -202.42803
L 501.340141 -203.396288
L 501.380314 -204.364547
L 501.419732 -205.332806
L 501.458348 -206.301065
L 501.496149 -207.269324
L 501.533153 -208.237583
L 501.569391 -209.205842
L 501.6049 -210.174101
L 501.639711 -211.14236
L 501.673836 -212.110619
L 501.707265 -213.078878
L 501.739952 -214.047137
L 501.771818 -215.015396
L 501.802751 -215.983654
L 501.832606 -216.951913
L 501.861211 -217.920172
L 501.888381 -218.888431
L 501.913923 -219.85669
L 501.937648 -220.824949
L 501.959386 -221.793208
L 501.978997 -222.761467
L 501.99638 -223.729726
L 502.01148 -224.697985
L 502.024303 -225.666244
L 502.034908 -226.634503
L 502.043418 -227.602761
L 502.050014 -228.57102
L 502.054931 -229.539279
L 502.058453 -230.507538
L 502.060901 -231.475797
L 502.062625 -232.444056
L 502.063991 -233.412315
L 502.06537 -234.380574
L 502.067125 -235.348833
L 502.069601 -236.317092
L 502.073108 -237.285351
L 502.077921 -238.25361
L 502.084262 -239.221869
L 502.092301 -240.190127
L 502.102149 -241.158386
L 502.113851 -242.126645
L 502.127394 -243.094904
L 502.142701 -244.063163
L 502.159637 -245.031422
L 502.178016 -245.999681
L 502.197602 -246.96794
L 502.218122 -247.936199
L 502.23927 -248.904458
L 502.260721 -249.872717
L 502.282137 -250.840976
L 502.30318 -251.809234
L 502.32352 -252.777493
L 502.342846 -253.745752
L 502.360873 -254.714011
L 502.377355 -255.68227
L 502.392087 -256.650529
L 502.404914 -257.618788
L 502.415735 -258.587047
L 502.424503 -259.555306
L 502.431229 -260.523565
L 502.435983 -261.491824
L 502.438885 -262.460083
L 502.440108 -263.428342
L 502.439865 -264.3966
L 502.438408 -265.364859
L 502.436017 -266.333118
L 502.432989 -267.301377
L 502.429628 -268.269636
L 502.426238 -269.237895
L 502.42311 -270.206154
L 502.420514 -271.174413
L 502.418687 -272.142672
L 502.417832 -273.110931
L 502.418106 -274.07919
L 502.41962 -275.047449
L 502.422436 -276.015707
L 502.426567 -276.983966
L 502.43198 -277.952225
L 502.4386 -278.920484
L 502.446312 -279.888743
L 502.454973 -280.857002
L 502.464415 -281.825261
L 502.474456 -282.79352
L 502.484906 -283.761779
L 502.495573 -284.730038
L 502.506276 -285.698297
L 502.516844 -286.666556
L 502.527123 -287.634815
L 502.536982 -288.603073
L 502.546313 -289.571332
L 502.555033 -290.539591
L 502.563082 -291.50785
L 502.570423 -292.476109
L 502.577044 -293.444368
L 502.582947 -294.412627
L 502.588154 -295.380886
L 502.592697 -296.349145
L 502.596619 -297.317404
L 502.599971 -298.285663
L 502.602806 -299.253922
L 502.60518 -300.22218
L 502.607148 -301.190439
L 502.608763 -302.158698
L 502.610076 -303.126957
L 502.611134 -304.095216
L 502.611977 -305.063475
L 502.612642 -306.031734
L 502.613163 -306.999993
L 502.613566 -307.968252
L 502.613876 -308.936511
L 502.61411 -309.90477
L 502.614286 -310.873029
L 502.614417 -311.841288
L 502.614511 -312.809546
L 502.614578 -313.777805
L 502.614623 -314.746064
L 502.614649 -315.714323
L 502.61466 -316.682582
L 502.614656 -317.650841
L 502.614638 -318.6191
L 502.614602 -319.587359
L 502.614547 -320.555618
L 502.614467 -321.523877
L 502.614355 -322.492136
L 502.614203 -323.460395
L 502.613998 -324.428653
L 502.613728 -325.396912
L 502.613373 -326.365171
L 502.612912 -327.33343
L 502.612321 -328.301689
L 502.611569 -329.269948
L 502.610621 -330.238207
L 502.609439 -331.206466
L 502.607977 -332.174725
L 502.606187 -333.142984
L 502.604019 -334.111243
L 502.601416 -335.079502
L 502.598323 -336.047761
L 502.594687 -337.016019
L 502.590453 -337.984278
L 502.585577 -338.952537
L 502.580019 -339.920796
L 502.573754 -340.889055
L 502.566768 -341.857314
L 502.559069 -342.825573
L 502.550682 -343.793832
L 502.541656 -344.762091
L 502.532065 -345.73035
L 502.522008 -346.698609
L 502.511609 -347.666868
L 502.501015 -348.635126
L 502.490394 -349.603385
L 502.479934 -350.571644
L 502.469831 -351.539903
L 502.460289 -352.508162
L 502.451513 -353.476421
L 502.443699 -354.44468
L 502.437029 -355.412939
L 502.431661 -356.381198
L 502.427728 -357.349457
L 502.425328 -358.317716
L 502.424521 -359.285975
L 502.805022 -359.285975
L 502.805022 -359.285975
L 502.804215 -358.317716
L 502.801815 -357.349457
L 502.797882 -356.381198
L 502.792515 -355.412939
L 502.785844 -354.44468
L 502.77803 -353.476421
L 502.769254 -352.508162
L 502.759713 -351.539903
L 502.74961 -350.571644
L 502.739149 -349.603385
L 502.728529 -348.635126
L 502.717935 -347.666868
L 502.707536 -346.698609
L 502.697479 -345.73035
L 502.687888 -344.762091
L 502.678862 -343.793832
L 502.670475 -342.825573
L 502.662775 -341.857314
L 502.65579 -340.889055
L 502.649525 -339.920796
L 502.643967 -338.952537
L 502.63909 -337.984278
L 502.634857 -337.016019
L 502.63122 -336.047761
L 502.628128 -335.079502
L 502.625525 -334.111243
L 502.623356 -333.142984
L 502.621567 -332.174725
L 502.620105 -331.206466
L 502.618922 -330.238207
L 502.617974 -329.269948
L 502.617222 -328.301689
L 502.616631 -327.33343
L 502.616171 -326.365171
L 502.615816 -325.396912
L 502.615545 -324.428653
L 502.615341 -323.460395
L 502.615189 -322.492136
L 502.615077 -321.523877
L 502.614997 -320.555618
L 502.614941 -319.587359
L 502.614906 -318.6191
L 502.614887 -317.650841
L 502.614883 -316.682582
L 502.614894 -315.714323
L 502.614921 -314.746064
L 502.614965 -313.777805
L 502.615032 -312.809546
L 502.615127 -311.841288
L 502.615257 -310.873029
L 502.615433 -309.90477
L 502.615668 -308.936511
L 502.615977 -307.968252
L 502.616381 -306.999993
L 502.616901 -306.031734
L 502.617567 -305.063475
L 502.61841 -304.095216
L 502.619467 -303.126957
L 502.62078 -302.158698
L 502.622396 -301.190439
L 502.624364 -300.22218
L 502.626738 -299.253922
L 502.629573 -298.285663
L 502.632924 -297.317404
L 502.636847 -296.349145
L 502.64139 -295.380886
L 502.646596 -294.412627
L 502.6525 -293.444368
L 502.65912 -292.476109
L 502.666462 -291.50785
L 502.674511 -290.539591
L 502.68323 -289.571332
L 502.692561 -288.603073
L 502.702421 -287.634815
L 502.7127 -286.666556
L 502.723267 -285.698297
L 502.73397 -284.730038
L 502.744638 -283.761779
L 502.755088 -282.79352
L 502.765129 -281.825261
L 502.774571 -280.857002
L 502.783232 -279.888743
L 502.790944 -278.920484
L 502.797563 -277.952225
L 502.802977 -276.983966
L 502.807108 -276.015707
L 502.809924 -275.047449
L 502.811438 -274.07919
L 502.811712 -273.110931
L 502.810856 -272.142672
L 502.80903 -271.174413
L 502.806433 -270.206154
L 502.803306 -269.237895
L 502.799916 -268.269636
L 502.796555 -267.301377
L 502.793526 -266.333118
L 502.791135 -265.364859
L 502.789679 -264.3966
L 502.789436 -263.428342
L 502.790658 -262.460083
L 502.793561 -261.491824
L 502.798314 -260.523565
L 502.805041 -259.555306
L 502.813809 -258.587047
L 502.824629 -257.618788
L 502.837456 -256.650529
L 502.852189 -255.68227
L 502.868671 -254.714011
L 502.886698 -253.745752
L 502.906023 -252.777493
L 502.926363 -251.809234
L 502.947406 -250.840976
L 502.968823 -249.872717
L 502.990274 -248.904458
L 503.011422 -247.936199
L 503.031942 -246.96794
L 503.051528 -245.999681
L 503.069906 -245.031422
L 503.086843 -244.063163
L 503.10215 -243.094904
L 503.115692 -242.126645
L 503.127395 -241.158386
L 503.137242 -240.190127
L 503.145282 -239.221869
L 503.151623 -238.25361
L 503.156436 -237.285351
L 503.159943 -236.317092
L 503.162418 -235.348833
L 503.164174 -234.380574
L 503.165553 -233.412315
L 503.166919 -232.444056
L 503.168642 -231.475797
L 503.17109 -230.507538
L 503.174612 -229.539279
L 503.17953 -228.57102
L 503.186126 -227.602761
L 503.194636 -226.634503
L 503.205241 -225.666244
L 503.218063 -224.697985
L 503.233164 -223.729726
L 503.250546 -222.761467
L 503.270157 -221.793208
L 503.291896 -220.824949
L 503.315621 -219.85669
L 503.341162 -218.888431
L 503.368332 -217.920172
L 503.396938 -216.951913
L 503.426792 -215.983654
L 503.457725 -215.015396
L 503.489592 -214.047137
L 503.522279 -213.078878
L 503.555707 -212.110619
L 503.589833 -211.14236
L 503.624644 -210.174101
L 503.660153 -209.205842
L 503.696391 -208.237583
L 503.733394 -207.269324
L 503.771196 -206.301065
L 503.809811 -205.332806
L 503.849229 -204.364547
L 503.889402 -203.396288
L 503.93024 -202.42803
L 503.971609 -201.459771
L 504.013329 -200.491512
L 504.055182 -199.523253
L 504.096921 -198.554994
L 504.138283 -197.586735
L 504.179004 -196.618476
L 504.218839 -195.650217
L 504.257583 -194.681958
L 504.295088 -193.713699
L 504.331284 -192.74544
L 504.366194 -191.777181
L 504.399943 -190.808923
L 504.432773 -189.840664
L 504.465035 -188.872405
L 504.497194 -187.904146
L 504.52981 -186.935887
L 504.563532 -185.967628
L 504.599067 -184.999369
L 504.637164 -184.03111
L 504.67858 -183.062851
L 504.724056 -182.094592
L 504.774284 -181.126333
L 504.829881 -180.158074
L 504.891369 -179.189815
L 504.959151 -178.221557
L 505.0335 -177.253298
L 505.114553 -176.285039
L 505.202307 -175.31678
L 505.296634 -174.348521
L 505.397287 -173.380262
L 505.503922 -172.412003
L 505.616127 -171.443744
L 505.733445 -170.475485
L 505.855407 -169.507226
L 505.981562 -168.538967
L 506.111506 -167.570708
L 506.244908 -166.60245
L 506.381532 -165.634191
L 506.521254 -164.665932
L 506.664067 -163.697673
L 506.810085 -162.729414
L 506.959537 -161.761155
L 507.112756 -160.792896
L 507.270154 -159.824637
L 507.432205 -158.856378
L 507.59941 -157.888119
L 507.772273 -156.91986
L 507.951269 -155.951601
L 508.136815 -154.983342
L 508.329247 -154.015084
L 508.528803 -153.046825
L 508.735607 -152.078566
L 508.94967 -151.110307
L 509.170886 -150.142048
L 509.399047 -149.173789
L 509.633861 -148.20553
L 509.874971 -147.237271
L 510.121984 -146.269012
L 510.374502 -145.300753
L 510.632152 -144.332494
L 510.894613 -143.364235
L 511.161645 -142.395977
L 511.433107 -141.427718
L 511.70898 -140.459459
L 511.989371 -139.4912
L 512.274518 -138.522941
L 512.564793 -137.554682
L 512.86069 -136.586423
L 513.162811 -135.618164
L 513.471856 -134.649905
L 513.788599 -133.681646
L 514.11387 -132.713387
L 514.448534 -131.745128
L 514.793467 -130.776869
L 515.149537 -129.808611
L 515.517585 -128.840352
L 515.898402 -127.872093
L 516.292714 -126.903834
L 516.70116 -125.935575
L 517.124282 -124.967316
L 517.562508 -123.999057
L 518.016141 -123.030798
L 518.485351 -122.062539
L 518.970172 -121.09428
L 519.470502 -120.126021
L 519.986109 -119.157762
L 520.51664 -118.189504
L 521.06164 -117.221245
L 521.620565 -116.252986
L 522.192798 -115.284727
L 522.777669 -114.316468
L 523.374454 -113.348209
L 523.982379 -112.37995
L 524.600595 -111.411691
L 525.228147 -110.443432
L 525.863915 -109.475173
L 526.506541 -108.506914
L 527.154335 -107.538655
L 527.805169 -106.570396
L 528.456363 -105.602138
L 529.104572 -104.633879
L 529.745687 -103.66562
L 530.374757 -102.697361
L 530.985942 -101.729102
L 531.572515 -100.760843
L 532.126909 -99.792584
L 532.640822 -98.824325
L 533.105381 -97.856066
L 533.511352 -96.887807
L 533.849399 -95.919548
L 534.110378 -94.951289
L 534.285647 -93.983031
L 534.367377 -93.014772
L 534.348853 -92.046513
L 534.224739 -91.078254
L 533.991293 -90.109995
L 533.646532 -89.141736
L 533.190322 -88.173477
L 532.624403 -87.205218
L 531.952342 -86.236959
L 531.179427 -85.2687
L 530.312505 -84.300441
L 529.359774 -83.332182
L 528.33055 -82.363923
L 527.235018 -81.395665
L 526.083976 -80.427406
L 524.88859 -79.459147
L 523.660158 -78.490888
L 522.409907 -77.522629
L 521.148803 -76.55437
L 519.887397 -75.586111
L 518.635688 -74.617852
L 517.40302 -73.649593
L 516.197986 -72.681334
L 515.028364 -71.713075
L 513.901056 -70.744816
L 512.82205 -69.776558
z
" style="stroke: #cc79a7; stroke-opacity: 0.43"/>
    </defs>
    <g clip-path="url(#pe31d46f124)">
     <use xlink:href="#me2a1e6879c" x="0" y="301.183008" style="fill: #cc79a7; fill-opacity: 0.43; stroke: #cc79a7; stroke-opacity: 0.43"/>
    </g>
   </g>
   <g id="line2d_33">
    <path d="M 403.387881 210.222835
L 403.387881 181.978014
" clip-path="url(#pe31d46f124)" style="fill: none; stroke: #8064a2; stroke-width: 3; stroke-linecap: round"/>
   </g>
   <g id="line2d_34">
    <path d="M 502.614772 210.222835
L 502.614772 174.916809
" clip-path="url(#pe31d46f124)" style="fill: none; stroke: #cc79a7; stroke-width: 3; stroke-linecap: round"/>
   </g>
   <g id="patch_8">
    <path d="M 343.851747 238.467656
L 343.851747 97.24355
" style="fill: none; stroke: #a9b2ba; stroke-width: 0.7; stroke-linejoin: miter; stroke-linecap: square"/>
   </g>
   <g id="patch_9">
    <path d="M 343.851747 238.467656
L 562.150906 238.467656
" style="fill: none; stroke: #a9b2ba; stroke-width: 0.7; stroke-linejoin: miter; stroke-linecap: square"/>
   </g>
   <g id="text_30">
    <text style="font-size: 8.2px; font-family: 'Arial'; text-anchor: middle; fill: #66737e" x="453.001326" y="292.353258" transform="rotate(-0 453.001326 292.353258)">White dot: median · Thick line: middle 50%</text>
   </g>
   <g id="text_31">
    <text style="font-size: 8.5px; font-family: 'Arial'; text-anchor: end; fill: #66737e" x="562.150906" y="92.24355" transform="rotate(-0 562.150906 92.24355)">Detail: 0–20 Unicode code points</text>
   </g>
   <g id="PathCollection_1">
    <defs>
     <path id="m916f0374bb" d="M 0 2.44949
C 0.649612 2.44949 1.272706 2.191396 1.732051 1.732051
C 2.191396 1.272706 2.44949 0.649612 2.44949 0
C 2.44949 -0.649612 2.191396 -1.272706 1.732051 -1.732051
C 1.272706 -2.191396 0.649612 -2.44949 0 -2.44949
C -0.649612 -2.44949 -1.272706 -2.191396 -1.732051 -1.732051
C -2.191396 -1.272706 -2.44949 -0.649612 -2.44949 0
C -2.44949 0.649612 -2.191396 1.272706 -1.732051 1.732051
C -1.272706 2.191396 -0.649612 2.44949 0 2.44949
z
" style="stroke: #8064a2; stroke-width: 1.3"/>
    </defs>
    <g clip-path="url(#pe31d46f124)">
     <use xlink:href="#m916f0374bb" x="403.387881" y="196.100424" style="fill: #ffffff; stroke: #8064a2; stroke-width: 1.3"/>
    </g>
   </g>
   <g id="PathCollection_2">
    <defs>
     <path id="mf835c55a81" d="M 0 2.44949
C 0.649612 2.44949 1.272706 2.191396 1.732051 1.732051
C 2.191396 1.272706 2.44949 0.649612 2.44949 0
C 2.44949 -0.649612 2.191396 -1.272706 1.732051 -1.732051
C 1.272706 -2.191396 0.649612 -2.44949 0 -2.44949
C -0.649612 -2.44949 -1.272706 -2.191396 -1.732051 -1.732051
C -2.191396 -1.272706 -2.44949 -0.649612 -2.44949 0
C -2.44949 0.649612 -2.191396 1.272706 -1.732051 1.732051
C -1.272706 2.191396 -0.649612 2.44949 0 2.44949
z
" style="stroke: #cc79a7; stroke-width: 1.3"/>
    </defs>
    <g clip-path="url(#pe31d46f124)">
     <use xlink:href="#mf835c55a81" x="502.614772" y="196.100424" style="fill: #ffffff; stroke: #cc79a7; stroke-width: 1.3"/>
    </g>
   </g>
  </g>
 </g>
 <defs>
  <clipPath id="pb7015bb834">
   <rect x="42.598906" y="30.207656" width="218.29916" height="208.26"/>
  </clipPath>
  <clipPath id="pde1850483e">
   <rect x="343.851747" y="30.207656" width="218.29916" height="45.556163"/>
  </clipPath>
  <clipPath id="pe31d46f124">
   <rect x="343.851747" y="97.24355" width="218.29916" height="141.224106"/>
  </clipPath>
 </defs>
</svg>
