<svg xmlns="http://www.w3.org/2000/svg" viewBox="0 0 1600 1140"><title>Human annotation, assisted review, and independent blinded agreement</title><desc>The historical reference and review paths are separate from a final-handbook study of 50 sampled sentences. Three coders complete training and then work independently without model suggestions or shared annotations. Agreement is computed on frozen annotations before discussion.</desc><rect x="0" y="0" width="1600" height="1140" rx="0" fill="#ffffff" stroke="#ffffff" stroke-width="0"/><text x="40" y="48" font-family="Comic Sans MS" font-weight="bold" font-size="36" fill="#24323d" text-anchor="start">Human annotation and LLM-assisted labeling</text><text x="45" y="99" font-family="Comic Sans MS" font-weight="bold" font-size="27" fill="#218466" text-anchor="start">Historical human reference</text><path d="M 472 91 L 1557 91" stroke="#d8e8e1" stroke-width="2" fill="none" stroke-linecap="round" stroke-linejoin="round" /><path d="M 918 225 L 1128 225" stroke="#24323d" stroke-width="3" fill="none" stroke-linecap="round" stroke-linejoin="round" /><path d="M 1128 225 L 1115.0 219.0 L 1115.0 231.0 Z" stroke="#24323d" stroke-width="1" fill="#24323d" stroke-linecap="round" stroke-linejoin="round" /><text x="485" y="235" font-family="Comic Sans MS" font-weight="bold" font-size="43" fill="#218466" text-anchor="middle">+</text><rect x="40" y="122" width="405" height="201" rx="16" fill="#fbfdfb" stroke="#90b6a5" stroke-width="2"/><rect x="525" y="122" width="395" height="201" rx="16" fill="#fbfdfb" stroke="#90b6a5" stroke-width="2"/><rect x="1130" y="122" width="430" height="201" rx="16" fill="#f6fbff" stroke="#2860d4" stroke-width="2.5"/><text x="242" y="160" font-family="Comic Sans MS" font-weight="bold" font-size="28" fill="#24323d" text-anchor="middle">Independent coding</text><circle cx="153" cy="199" r="20" fill="#f7faff" stroke="#2860d4" stroke-width="4"/><path d="M 124 265 L 124 243 L 129 231 L 141 225 L 165 225 L 177 231 L 182 243 L 182 265" stroke="#2860d4" stroke-width="4" fill="#f3f8ff" stroke-linecap="round" stroke-linejoin="round" /><path d="M 124 265 L 182 265" stroke="#2860d4" stroke-width="4" fill="none" stroke-linecap="round" stroke-linejoin="round" /><path d="M 195 184 L 232 184 L 250 202 L 250 254 L 195 254 L 195 184" stroke="#079bad" stroke-width="4" fill="#ffffff" stroke-linecap="round" stroke-linejoin="round" /><path d="M 232 184 L 232 202 L 250 202" stroke="#079bad" stroke-width="3" fill="none" stroke-linecap="round" stroke-linejoin="round" /><path d="M 208 216 L 236 216" stroke="#079bad" stroke-width="3" fill="none" stroke-linecap="round" stroke-linejoin="round" /><path d="M 208 232 L 236 232" stroke="#079bad" stroke-width="3" fill="none" stroke-linecap="round" stroke-linejoin="round" /><path d="M 208 248 L 236 248" stroke="#079bad" stroke-width="3" fill="none" stroke-linecap="round" stroke-linejoin="round" /><circle cx="305" cy="199" r="20" fill="#f7faff" stroke="#079bad" stroke-width="4"/><path d="M 276 265 L 276 243 L 281 231 L 293 225 L 317 225 L 329 231 L 334 243 L 334 265" stroke="#079bad" stroke-width="4" fill="#f3f8ff" stroke-linecap="round" stroke-linejoin="round" /><path d="M 276 265 L 334 265" stroke="#079bad" stroke-width="4" fill="none" stroke-linecap="round" stroke-linejoin="round" /><path d="M 348 184 L 385 184 L 403 202 L 403 254 L 348 254 L 348 184" stroke="#2860d4" stroke-width="4" fill="#ffffff" stroke-linecap="round" stroke-linejoin="round" /><path d="M 385 184 L 385 202 L 403 202" stroke="#2860d4" stroke-width="3" fill="none" stroke-linecap="round" stroke-linejoin="round" /><path d="M 361 216 L 389 216" stroke="#2860d4" stroke-width="3" fill="none" stroke-linecap="round" stroke-linejoin="round" /><path d="M 361 232 L 389 232" stroke="#2860d4" stroke-width="3" fill="none" stroke-linecap="round" stroke-linejoin="round" /><path d="M 361 248 L 389 248" stroke="#2860d4" stroke-width="3" fill="none" stroke-linecap="round" stroke-linejoin="round" /><text x="242" y="297" font-family="Arial" font-weight="normal" font-size="26" fill="#24323d" text-anchor="middle">50 sentences · adjudicated</text><text x="722" y="160" font-family="Comic Sans MS" font-weight="bold" font-size="28" fill="#24323d" text-anchor="middle">Collaborative coding</text><circle cx="625" cy="199" r="20" fill="#f7faff" stroke="#2860d4" stroke-width="4"/><path d="M 596 265 L 596 243 L 601 231 L 613 225 L 637 225 L 649 231 L 654 243 L 654 265" stroke="#2860d4" stroke-width="4" fill="#f3f8ff" stroke-linecap="round" stroke-linejoin="round" /><path d="M 596 265 L 654 265" stroke="#2860d4" stroke-width="4" fill="none" stroke-linecap="round" stroke-linejoin="round" /><circle cx="682" cy="187" r="20" fill="#f7faff" stroke="#079bad" stroke-width="4"/><path d="M 653 253 L 653 231 L 658 219 L 670 213 L 694 213 L 706 219 L 711 231 L 711 253" stroke="#079bad" stroke-width="4" fill="#f3f8ff" stroke-linecap="round" stroke-linejoin="round" /><path d="M 653 253 L 711 253" stroke="#079bad" stroke-width="4" fill="none" stroke-linecap="round" stroke-linejoin="round" /><path d="M 757 165 L 808 165 L 826 183 L 826 252 L 757 252 L 757 165" stroke="#079bad" stroke-width="4" fill="#ffffff" stroke-linecap="round" stroke-linejoin="round" /><path d="M 808 165 L 808 183 L 826 183" stroke="#079bad" stroke-width="3" fill="none" stroke-linecap="round" stroke-linejoin="round" /><path d="M 770 197 L 812 197" stroke="#079bad" stroke-width="3" fill="none" stroke-linecap="round" stroke-linejoin="round" /><path d="M 770 213 L 812 213" stroke="#079bad" stroke-width="3" fill="none" stroke-linecap="round" stroke-linejoin="round" /><path d="M 770 229 L 812 229" stroke="#079bad" stroke-width="3" fill="none" stroke-linecap="round" stroke-linejoin="round" /><circle cx="823" cy="248" r="20" fill="#f0fbf7" stroke="#218466" stroke-width="3"/><path d="M 812 248 L 820 256 L 834 239" stroke="#218466" stroke-width="4" fill="none" stroke-linecap="round" stroke-linejoin="round" /><text x="722" y="297" font-family="Arial" font-weight="normal" font-size="26" fill="#24323d" text-anchor="middle">100 sentences · audited</text><text x="1345" y="160" font-family="Comic Sans MS" font-weight="bold" font-size="29" fill="#2860d4" text-anchor="middle">Human reference</text><rect x="1305" y="184" width="98" height="94" rx="9" fill="#f2f7ff" stroke="#2860d4" stroke-width="3"/><rect x="1298" y="176" width="98" height="94" rx="9" fill="#ffffff" stroke="#2860d4" stroke-width="3"/><rect x="1293" y="169" width="98" height="94" rx="9" fill="#ffffff" stroke="#2860d4" stroke-width="4"/><path d="M 1313 194 L 1369 194" stroke="#2860d4" stroke-width="4" fill="none" stroke-linecap="round" stroke-linejoin="round" /><path d="M 1313 213 L 1369 213" stroke="#2860d4" stroke-width="4" fill="none" stroke-linecap="round" stroke-linejoin="round" /><path d="M 1313 232 L 1369 232" stroke="#2860d4" stroke-width="4" fill="none" stroke-linecap="round" stroke-linejoin="round" /><circle cx="1412" cy="250" r="23" fill="#ffffff" stroke="#218466" stroke-width="3"/><path d="M 1399 250 L 1408 259 L 1425 236" stroke="#218466" stroke-width="4" fill="none" stroke-linecap="round" stroke-linejoin="round" /><text x="1345" y="306" font-family="Arial" font-weight="normal" font-size="25" fill="#24323d" text-anchor="middle">150 sentences · frozen for scoring</text><text x="1024" y="264" font-family="Comic Sans MS" font-weight="normal" font-size="23" fill="#586474" text-anchor="middle">combine</text><text x="45" y="371" font-family="Comic Sans MS" font-weight="bold" font-size="27" fill="#ec792d" text-anchor="start">LLM annotation and sampled review</text><path d="M 662 363 L 1557 363" stroke="#f2ddc8" stroke-width="2" fill="none" stroke-linecap="round" stroke-linejoin="round" /><path d="M 360 511 L 440 511" stroke="#24323d" stroke-width="3" fill="none" stroke-linecap="round" stroke-linejoin="round" /><path d="M 440 511 L 427.0 505.0 L 427.0 517.0 Z" stroke="#24323d" stroke-width="1" fill="#24323d" stroke-linecap="round" stroke-linejoin="round" /><path d="M 760 511 L 840 511" stroke="#24323d" stroke-width="3" fill="none" stroke-linecap="round" stroke-linejoin="round" /><path d="M 840 511 L 827.0 505.0 L 827.0 517.0 Z" stroke="#24323d" stroke-width="1" fill="#24323d" stroke-linecap="round" stroke-linejoin="round" /><path d="M 1160 511 L 1240 511" stroke="#24323d" stroke-width="3" fill="none" stroke-linecap="round" stroke-linejoin="round" stroke-dasharray="8 6"/><path d="M 1240 511 L 1227.0 505.0 L 1227.0 517.0 Z" stroke="#24323d" stroke-width="1" fill="#24323d" stroke-linecap="round" stroke-linejoin="round" /><rect x="40" y="397" width="320" height="229" rx="16" fill="#fffcf8" stroke="#d4baa0" stroke-width="2"/><rect x="440" y="397" width="320" height="229" rx="16" fill="#fffcf8" stroke="#d4baa0" stroke-width="2"/><rect x="840" y="397" width="320" height="229" rx="16" fill="#fffcf8" stroke="#d4baa0" stroke-width="2"/><rect x="1240" y="397" width="320" height="229" rx="16" fill="#f8fbff" stroke="#9aafd5" stroke-width="2"/><text x="200" y="437" font-family="Comic Sans MS" font-weight="bold" font-size="28" fill="#24323d" text-anchor="middle">Initial review</text><rect x="100" y="487" width="86" height="67" rx="15" fill="#f1fbfc" stroke="#079bad" stroke-width="4"/><path d="M 143 486 L 143 467" stroke="#079bad" stroke-width="4" fill="none" stroke-linecap="round" stroke-linejoin="round" /><circle cx="143" cy="461" r="6" fill="#ffffff" stroke="#079bad" stroke-width="3"/><circle cx="125" cy="512" r="5" fill="#079bad" stroke="#079bad" stroke-width="2"/><circle cx="161" cy="512" r="5" fill="#079bad" stroke="#079bad" stroke-width="2"/><path d="M 130 533 L 156 533" stroke="#079bad" stroke-width="4" fill="none" stroke-linecap="round" stroke-linejoin="round" /><path d="M 94 508 L 94 531" stroke="#079bad" stroke-width="5" fill="none" stroke-linecap="round" stroke-linejoin="round" /><path d="M 192 508 L 192 531" stroke="#079bad" stroke-width="5" fill="none" stroke-linecap="round" stroke-linejoin="round" /><circle cx="267" cy="477" r="20" fill="#f7faff" stroke="#2860d4" stroke-width="4"/><path d="M 238 543 L 238 521 L 243 509 L 255 503 L 279 503 L 291 509 L 296 521 L 296 543" stroke="#2860d4" stroke-width="4" fill="#f3f8ff" stroke-linecap="round" stroke-linejoin="round" /><path d="M 238 543 L 296 543" stroke="#2860d4" stroke-width="4" fill="none" stroke-linecap="round" stroke-linejoin="round" /><path d="M 221 476 L 252 476 L 270 494 L 270 538 L 221 538 L 221 476" stroke="#ec792d" stroke-width="4" fill="#ffffff" stroke-linecap="round" stroke-linejoin="round" /><path d="M 252 476 L 252 494 L 270 494" stroke="#ec792d" stroke-width="3" fill="none" stroke-linecap="round" stroke-linejoin="round" /><path d="M 234 508 L 256 508" stroke="#ec792d" stroke-width="3" fill="none" stroke-linecap="round" stroke-linejoin="round" /><path d="M 234 524 L 256 524" stroke="#ec792d" stroke-width="3" fill="none" stroke-linecap="round" stroke-linejoin="round" /><path d="M 234 540 L 256 540" stroke="#ec792d" stroke-width="3" fill="none" stroke-linecap="round" stroke-linejoin="round" /><circle cx="267" cy="534" r="20" fill="#f0fbf7" stroke="#218466" stroke-width="3"/><path d="M 256 534 L 264 542 L 278 525" stroke="#218466" stroke-width="4" fill="none" stroke-linecap="round" stroke-linejoin="round" /><text x="200" y="585" font-family="Arial" font-weight="normal" font-size="26" fill="#24323d" text-anchor="middle">100 sentences</text><text x="200" y="614" font-family="Arial" font-weight="normal" font-size="25" fill="#586474" text-anchor="middle">Human review</text><text x="600" y="437" font-family="Comic Sans MS" font-weight="bold" font-size="28" fill="#24323d" text-anchor="middle">Bulk annotation</text><path d="M 510 477 L 545 477 L 563 495 L 563 550 L 510 550 L 510 477" stroke="#079bad" stroke-width="4" fill="#ffffff" stroke-linecap="round" stroke-linejoin="round" /><path d="M 545 477 L 545 495 L 563 495" stroke="#079bad" stroke-width="3" fill="none" stroke-linecap="round" stroke-linejoin="round" /><path d="M 523 509 L 549 509" stroke="#079bad" stroke-width="3" fill="none" stroke-linecap="round" stroke-linejoin="round" /><path d="M 523 525 L 549 525" stroke="#079bad" stroke-width="3" fill="none" stroke-linecap="round" stroke-linejoin="round" /><path d="M 523 541 L 549 541" stroke="#079bad" stroke-width="3" fill="none" stroke-linecap="round" stroke-linejoin="round" /><rect x="587" y="487" width="86" height="67" rx="15" fill="#f1fbfc" stroke="#079bad" stroke-width="4"/><path d="M 630 486 L 630 467" stroke="#079bad" stroke-width="4" fill="none" stroke-linecap="round" stroke-linejoin="round" /><circle cx="630" cy="461" r="6" fill="#ffffff" stroke="#079bad" stroke-width="3"/><circle cx="612" cy="512" r="5" fill="#079bad" stroke="#079bad" stroke-width="2"/><circle cx="648" cy="512" r="5" fill="#079bad" stroke="#079bad" stroke-width="2"/><path d="M 617 533 L 643 533" stroke="#079bad" stroke-width="4" fill="none" stroke-linecap="round" stroke-linejoin="round" /><path d="M 581 508 L 581 531" stroke="#079bad" stroke-width="5" fill="none" stroke-linecap="round" stroke-linejoin="round" /><path d="M 679 508 L 679 531" stroke="#079bad" stroke-width="5" fill="none" stroke-linecap="round" stroke-linejoin="round" /><path d="M 571 513 L 587 513" stroke="#24323d" stroke-width="3" fill="none" stroke-linecap="round" stroke-linejoin="round" /><text x="600" y="597" font-family="Arial" font-weight="normal" font-size="26" fill="#24323d" text-anchor="middle">LLM-generated labels</text><text x="1000" y="437" font-family="Comic Sans MS" font-weight="bold" font-size="29" fill="#ec792d" text-anchor="middle">Silver-plus</text><rect x="960" y="461" width="98" height="94" rx="9" fill="#f2f7ff" stroke="#079bad" stroke-width="3"/><rect x="953" y="453" width="98" height="94" rx="9" fill="#ffffff" stroke="#079bad" stroke-width="3"/><rect x="948" y="446" width="98" height="94" rx="9" fill="#ffffff" stroke="#079bad" stroke-width="4"/><path d="M 968 471 L 1024 471" stroke="#079bad" stroke-width="4" fill="none" stroke-linecap="round" stroke-linejoin="round" /><path d="M 968 490 L 1024 490" stroke="#079bad" stroke-width="4" fill="none" stroke-linecap="round" stroke-linejoin="round" /><path d="M 968 509 L 1024 509" stroke="#079bad" stroke-width="4" fill="none" stroke-linecap="round" stroke-linejoin="round" /><text x="1000" y="586" font-family="Arial" font-weight="normal" font-size="28" fill="#24323d" text-anchor="middle">9,540 sentences</text><text x="1000" y="615" font-family="Arial" font-weight="normal" font-size="25" fill="#586474" text-anchor="middle">Expanded Silver pool</text><text x="1400" y="437" font-family="Comic Sans MS" font-weight="bold" font-size="25" fill="#24323d" text-anchor="middle">Post-generation review</text><circle cx="1387" cy="499" r="43" fill="#f4f8ff" stroke="#2860d4" stroke-width="5"/><circle cx="1387" cy="499" r="35" fill="#ffffff" stroke="#2860d4" stroke-width="2"/><path d="M 1369 483 L 1405 483" stroke="#2860d4" stroke-width="4" fill="none" stroke-linecap="round" stroke-linejoin="round" /><path d="M 1369 498 L 1405 498" stroke="#2860d4" stroke-width="4" fill="none" stroke-linecap="round" stroke-linejoin="round" /><path d="M 1369 513 L 1405 513" stroke="#2860d4" stroke-width="4" fill="none" stroke-linecap="round" stroke-linejoin="round" /><path d="M 1417 530 L 1444 560 L 1456 549 L 1429 522 Z" stroke="#2860d4" stroke-width="4" fill="#d8e7ff" stroke-linecap="round" stroke-linejoin="round" /><text x="1400" y="585" font-family="Arial" font-weight="normal" font-size="25" fill="#24323d" text-anchor="middle">100 original + 150 later</text><text x="1400" y="615" font-family="Arial" font-weight="normal" font-size="25" fill="#586474" text-anchor="middle">Sampled quality check</text><text x="1200" y="552" font-family="Comic Sans MS" font-weight="normal" font-size="23" fill="#586474" text-anchor="middle">sample</text><rect x="40" y="645" width="1520" height="48" rx="12" fill="#f4f8fb" stroke="#d8e3ec" stroke-width="1.5"/><text x="800" y="677" font-family="Arial" font-weight="normal" font-size="28" fill="#24323d" text-anchor="middle">Historical coding and review: 500 unique sentences</text><text x="45" y="747" font-family="Comic Sans MS" font-weight="bold" font-size="28" fill="#8661cc" text-anchor="start">Final-handbook agreement study</text><path d="M 654 739 L 1557 739" stroke="#e8def4" stroke-width="2" fill="none" stroke-linecap="round" stroke-linejoin="round" /><rect x="581" y="768" width="438" height="63" rx="13" fill="#fcfaff" stroke="#b7a2d5" stroke-width="2"/><text x="800" y="794" font-family="Comic Sans MS" font-weight="bold" font-size="26" fill="#8661cc" text-anchor="middle">Coder preparation</text><text x="800" y="820" font-family="Arial" font-weight="normal" font-size="25" fill="#24323d" text-anchor="middle">5 learning + 15 practice sentences</text><path d="M 800 832 L 800 857" stroke="#8661cc" stroke-width="3" fill="none" stroke-linecap="round" stroke-linejoin="round" /><path d="M 800 857 L 806.0 844.0 L 794.0 844.0 Z" stroke="#8661cc" stroke-width="1" fill="#8661cc" stroke-linecap="round" stroke-linejoin="round" /><rect x="40" y="860" width="425" height="246" rx="16" fill="#fcfaff" stroke="#b7a2d5" stroke-width="2"/><rect x="583" y="860" width="434" height="246" rx="16" fill="#fcfaff" stroke="#b7a2d5" stroke-width="2"/><rect x="1135" y="860" width="425" height="246" rx="16" fill="#f7fbff" stroke="#9aafd5" stroke-width="2"/><path d="M 466 985 L 581 985" stroke="#8661cc" stroke-width="3" fill="none" stroke-linecap="round" stroke-linejoin="round" /><path d="M 581 985 L 568.0 979.0 L 568.0 991.0 Z" stroke="#8661cc" stroke-width="1" fill="#8661cc" stroke-linecap="round" stroke-linejoin="round" /><path d="M 1018 985 L 1133 985" stroke="#8661cc" stroke-width="3" fill="none" stroke-linecap="round" stroke-linejoin="round" /><path d="M 1133 985 L 1120.0 979.0 L 1120.0 991.0 Z" stroke="#8661cc" stroke-width="1" fill="#8661cc" stroke-linecap="round" stroke-linejoin="round" /><text x="252" y="900" font-family="Comic Sans MS" font-weight="bold" font-size="29" fill="#8661cc" text-anchor="middle">Random sampling</text><rect x="212" y="930" width="98" height="94" rx="9" fill="#f2f7ff" stroke="#079bad" stroke-width="3"/><rect x="205" y="922" width="98" height="94" rx="9" fill="#ffffff" stroke="#079bad" stroke-width="3"/><rect x="200" y="915" width="98" height="94" rx="9" fill="#ffffff" stroke="#079bad" stroke-width="4"/><path d="M 220 940 L 276 940" stroke="#079bad" stroke-width="4" fill="none" stroke-linecap="round" stroke-linejoin="round" /><path d="M 220 959 L 276 959" stroke="#079bad" stroke-width="4" fill="none" stroke-linecap="round" stroke-linejoin="round" /><path d="M 220 978 L 276 978" stroke="#079bad" stroke-width="4" fill="none" stroke-linecap="round" stroke-linejoin="round" /><text x="252" y="1060" font-family="Arial" font-weight="normal" font-size="29" fill="#24323d" text-anchor="middle">50 sentences</text><text x="252" y="1093" font-family="Arial" font-weight="normal" font-size="26" fill="#586474" text-anchor="middle">Silver teacher pool</text><text x="800" y="900" font-family="Comic Sans MS" font-weight="bold" font-size="28" fill="#8661cc" text-anchor="middle">Three independent coders</text><circle cx="683" cy="943" r="20" fill="#f7faff" stroke="#2860d4" stroke-width="4"/><path d="M 654 1009 L 654 987 L 659 975 L 671 969 L 695 969 L 707 975 L 712 987 L 712 1009" stroke="#2860d4" stroke-width="4" fill="#f3f8ff" stroke-linecap="round" stroke-linejoin="round" /><path d="M 654 1009 L 712 1009" stroke="#2860d4" stroke-width="4" fill="none" stroke-linecap="round" stroke-linejoin="round" /><circle cx="800" cy="943" r="20" fill="#f7faff" stroke="#079bad" stroke-width="4"/><path d="M 771 1009 L 771 987 L 776 975 L 788 969 L 812 969 L 824 975 L 829 987 L 829 1009" stroke="#079bad" stroke-width="4" fill="#f3f8ff" stroke-linecap="round" stroke-linejoin="round" /><path d="M 771 1009 L 829 1009" stroke="#079bad" stroke-width="4" fill="none" stroke-linecap="round" stroke-linejoin="round" /><circle cx="917" cy="943" r="20" fill="#f7faff" stroke="#8661cc" stroke-width="4"/><path d="M 888 1009 L 888 987 L 893 975 L 905 969 L 929 969 L 941 975 L 946 987 L 946 1009" stroke="#8661cc" stroke-width="4" fill="#f3f8ff" stroke-linecap="round" stroke-linejoin="round" /><path d="M 888 1009 L 946 1009" stroke="#8661cc" stroke-width="4" fill="none" stroke-linecap="round" stroke-linejoin="round" /><path d="M 742 925 L 742 1018" stroke="#dbd0e9" stroke-width="2" fill="none" stroke-linecap="round" stroke-linejoin="round" stroke-dasharray="8 6"/><path d="M 858 925 L 858 1018" stroke="#dbd0e9" stroke-width="2" fill="none" stroke-linecap="round" stroke-linejoin="round" stroke-dasharray="8 6"/><text x="800" y="1060" font-family="Arial" font-weight="normal" font-size="27" fill="#24323d" text-anchor="middle">No model suggestions</text><text x="800" y="1093" font-family="Arial" font-weight="normal" font-size="27" fill="#24323d" text-anchor="middle">No shared annotations</text><text x="1347" y="900" font-family="Comic Sans MS" font-weight="bold" font-size="29" fill="#2860d4" text-anchor="middle">Agreement assessment</text><path d="M 1312 926 L 1363 926 L 1381 944 L 1381 1014 L 1312 1014 L 1312 926" stroke="#2860d4" stroke-width="4" fill="#ffffff" stroke-linecap="round" stroke-linejoin="round" /><path d="M 1363 926 L 1363 944 L 1381 944" stroke="#2860d4" stroke-width="3" fill="none" stroke-linecap="round" stroke-linejoin="round" /><path d="M 1325 958 L 1367 958" stroke="#2860d4" stroke-width="3" fill="none" stroke-linecap="round" stroke-linejoin="round" /><path d="M 1325 974 L 1367 974" stroke="#2860d4" stroke-width="3" fill="none" stroke-linecap="round" stroke-linejoin="round" /><path d="M 1325 990 L 1367 990" stroke="#2860d4" stroke-width="3" fill="none" stroke-linecap="round" stroke-linejoin="round" /><circle cx="1378" cy="1010" r="20" fill="#f0fbf7" stroke="#218466" stroke-width="3"/><path d="M 1367 1010 L 1375 1018 L 1389 1001" stroke="#218466" stroke-width="4" fill="none" stroke-linecap="round" stroke-linejoin="round" /><text x="1347" y="1060" font-family="Arial" font-weight="normal" font-size="28" fill="#24323d" text-anchor="middle">Span F1 · character α</text><text x="1347" y="1093" font-family="Arial" font-weight="normal" font-size="26" fill="#586474" text-anchor="middle">Frozen annotations</text></svg>